<?xml version="1.0" encoding="UTF-8" standalone="no"?>
<svg
   xmlns:dc="http://purl.org/dc/elements/1.1/"
   xmlns:cc="http://creativecommons.org/ns#"
   xmlns:rdf="http://www.w3.org/1999/02/22-rdf-syntax-ns#"
   xmlns:svg="http://www.w3.org/2000/svg"
   xmlns="http://www.w3.org/2000/svg"
   xmlns:sodipodi="http://sodipodi.sourceforge.net/DTD/sodipodi-0.dtd"
   xmlns:inkscape="http://www.inkscape.org/namespaces/inkscape"
   width="210mm"
   height="297mm"
   viewBox="0 0 210 297"
   version="1.1"
   id="svg8"
   inkscape:version="1.0.1 (3bc2e813f5, 2020-09-07)"
   sodipodi:docname="leaf_traits.svg">
  <defs
     id="defs2">
    <clipPath
       clipPathUnits="userSpaceOnUse"
       id="clipPath86">
      <path
         d="M 39.31,32.76 H 714.52 V 426.52 H 39.31 Z"
         id="path84" />
    </clipPath>
    <clipPath
       clipPathUnits="userSpaceOnUse"
       id="clipPath514">
      <path
         d="M 29.05,32.76 H 714.52 V 426.52 H 29.05 Z"
         id="path512" />
    </clipPath>
    <clipPath
       clipPathUnits="userSpaceOnUse"
       id="clipPath942">
      <path
         d="M 34.06,32.76 H 714.52 V 426.52 H 34.06 Z"
         id="path940" />
    </clipPath>
    <clipPath
       clipPathUnits="userSpaceOnUse"
       id="clipPath1379">
      <path
         d="M 39.06,32.76 H 714.52 V 426.52 H 39.06 Z"
         id="path1377" />
    </clipPath>
    <clipPath
       clipPathUnits="userSpaceOnUse"
       id="clipPath1819">
      <path
         d="M 0,0 H 720 V 432 H 0 Z"
         id="path1817" />
    </clipPath>
    <clipPath
       clipPathUnits="userSpaceOnUse"
       id="clipPath1831">
      <path
         d="M 39.06,32.76 H 714.52 V 426.52 H 39.06 Z"
         id="path1829" />
    </clipPath>
  </defs>
  <sodipodi:namedview
     id="base"
     pagecolor="#ffffff"
     bordercolor="#666666"
     borderopacity="1.0"
     inkscape:pageopacity="0.0"
     inkscape:pageshadow="2"
     inkscape:zoom="1.979899"
     inkscape:cx="188.10388"
     inkscape:cy="110.19811"
     inkscape:document-units="mm"
     inkscape:current-layer="layer1"
     inkscape:document-rotation="0"
     showgrid="false"
     inkscape:window-width="1366"
     inkscape:window-height="744"
     inkscape:window-x="0"
     inkscape:window-y="0"
     inkscape:window-maximized="0"
     inkscape:snap-page="true" />
  <metadata
     id="metadata5">
    <rdf:RDF>
      <cc:Work
         rdf:about="">
        <dc:format>image/svg+xml</dc:format>
        <dc:type
           rdf:resource="http://purl.org/dc/dcmitype/StillImage" />
        <dc:title />
      </cc:Work>
    </rdf:RDF>
  </metadata>
  <g
     inkscape:label="Layer 1"
     inkscape:groupmode="layer"
     id="layer1">
    <g
       id="g56"
       transform="matrix(0.09707795,0,0,-0.11545478,140.34094,56.942439)" />
    <g
       id="g58"
       transform="matrix(0.09707795,0,0,-0.11545478,140.34094,56.942439)" />
    <g
       id="g60"
       transform="matrix(0.09707795,0,0,-0.11545478,140.34094,56.942439)" />
    <g
       id="g62"
       transform="matrix(0.09707795,0,0,-0.11545478,140.34094,56.942439)" />
    <g
       id="g64"
       transform="matrix(0.09707795,0,0,-0.11545478,140.34094,56.942439)" />
    <g
       id="g66"
       transform="matrix(0.09707795,0,0,-0.11545478,140.34094,56.942439)" />
    <g
       id="g68"
       transform="matrix(0.09707795,0,0,-0.11545478,140.34094,56.942439)" />
    <g
       id="g70"
       transform="matrix(0.09707795,0,0,-0.11545478,140.34094,56.942439)" />
    <g
       id="g72"
       transform="matrix(0.09707795,0,0,-0.11545478,140.34094,56.942439)" />
    <g
       id="g78"
       transform="matrix(0.09707795,0,0,-0.11545478,140.34094,56.942439)" />
    <g
       id="g180"
       transform="matrix(0.09707795,0,0,-0.11545478,140.34094,56.942439)" />
    <g
       id="g182"
       transform="matrix(0.09707795,0,0,-0.11545478,140.34094,56.942439)" />
    <g
       id="g184"
       transform="matrix(0.09707795,0,0,-0.11545478,140.34094,56.942439)" />
    <g
       id="g186"
       transform="matrix(0.09707795,0,0,-0.11545478,140.34094,56.942439)" />
    <g
       id="g188"
       transform="matrix(0.09707795,0,0,-0.11545478,140.34094,56.942439)" />
    <g
       id="g190"
       transform="matrix(0.09707795,0,0,-0.11545478,140.34094,56.942439)" />
    <g
       id="g192"
       transform="matrix(0.09707795,0,0,-0.11545478,140.34094,56.942439)" />
    <g
       id="g194"
       transform="matrix(0.09707795,0,0,-0.11545478,140.34094,56.942439)" />
    <g
       id="g196"
       transform="matrix(0.09707795,0,0,-0.11545478,140.34094,56.942439)" />
    <g
       id="g198"
       transform="matrix(0.09707795,0,0,-0.11545478,140.34094,56.942439)" />
    <g
       id="g200"
       transform="matrix(0.09707795,0,0,-0.11545478,140.34094,56.942439)" />
    <g
       id="g202"
       transform="matrix(0.09707795,0,0,-0.11545478,140.34094,56.942439)" />
    <g
       id="g208"
       transform="matrix(0.09707795,0,0,-0.11545478,140.34094,56.942439)" />
    <g
       id="g210"
       transform="matrix(0.09707795,0,0,-0.11545478,140.34094,56.942439)" />
    <g
       id="g226"
       transform="matrix(0.09707795,0,0,-0.11545478,140.34094,56.942439)" />
    <g
       id="g236"
       transform="matrix(0.09707795,0,0,-0.11545478,140.34094,56.942439)" />
    <g
       id="g238"
       transform="matrix(0.09707795,0,0,-0.11545478,140.34094,56.942439)" />
    <g
       id="g240"
       transform="matrix(0.09707795,0,0,-0.11545478,140.34094,56.942439)" />
    <g
       id="g242"
       transform="matrix(0.09707795,0,0,-0.11545478,140.34094,56.942439)" />
    <g
       id="g244"
       transform="matrix(0.09707795,0,0,-0.11545478,140.34094,56.942439)" />
    <g
       id="g246"
       transform="matrix(0.09707795,0,0,-0.11545478,140.34094,56.942439)" />
    <g
       id="g252"
       transform="matrix(0.09707795,0,0,-0.11545478,140.34094,56.942439)" />
    <g
       id="g254"
       transform="matrix(0.09707795,0,0,-0.11545478,140.34094,56.942439)" />
    <g
       id="g262"
       transform="matrix(0.09707795,0,0,-0.11545478,140.34094,56.942439)" />
    <g
       id="g274"
       transform="matrix(0.09707795,0,0,-0.11545478,140.34094,56.942439)" />
    <g
       id="g276"
       transform="matrix(0.09707795,0,0,-0.11545478,140.34094,56.942439)" />
    <g
       id="g278"
       transform="matrix(0.09707795,0,0,-0.11545478,140.34094,56.942439)" />
    <g
       id="g280"
       transform="matrix(0.09707795,0,0,-0.11545478,140.34094,56.942439)" />
    <g
       id="g282"
       transform="matrix(0.09707795,0,0,-0.11545478,140.34094,56.942439)" />
    <g
       id="g290"
       transform="matrix(0.09707795,0,0,-0.11545478,140.34094,56.942439)" />
    <g
       id="g298"
       transform="matrix(0.09707795,0,0,-0.11545478,140.34094,56.942439)" />
    <g
       id="g300"
       transform="matrix(0.09707795,0,0,-0.11545478,140.34094,56.942439)" />
    <g
       id="g302"
       transform="matrix(0.09707795,0,0,-0.11545478,140.34094,56.942439)" />
    <g
       id="g304"
       transform="matrix(0.09707795,0,0,-0.11545478,140.34094,56.942439)" />
    <g
       id="g306"
       transform="matrix(0.09707795,0,0,-0.11545478,140.34094,56.942439)" />
    <g
       id="g308"
       transform="matrix(0.09707795,0,0,-0.11545478,140.34094,56.942439)" />
    <g
       id="g310"
       transform="matrix(0.09707795,0,0,-0.11545478,140.34094,56.942439)" />
    <g
       id="g312"
       transform="matrix(0.09707795,0,0,-0.11545478,140.34094,56.942439)" />
    <g
       id="g314"
       transform="matrix(0.09707795,0,0,-0.11545478,140.34094,56.942439)" />
    <g
       id="g316"
       transform="matrix(0.09707795,0,0,-0.11545478,140.34094,56.942439)" />
    <g
       id="g318"
       transform="matrix(0.09707795,0,0,-0.11545478,140.34094,56.942439)" />
    <g
       id="g320"
       transform="matrix(0.09707795,0,0,-0.11545478,140.34094,56.942439)" />
    <g
       id="g484"
       transform="matrix(0.09707794,0,0,-0.11545481,1.5509367,118.46417)" />
    <g
       id="g486"
       transform="matrix(0.09707794,0,0,-0.11545481,1.5509367,118.46417)" />
    <g
       id="g488"
       transform="matrix(0.09707794,0,0,-0.11545481,1.5509367,118.46417)" />
    <g
       id="g490"
       transform="matrix(0.09707794,0,0,-0.11545481,1.5509367,118.46417)" />
    <g
       id="g492"
       transform="matrix(0.09707794,0,0,-0.11545481,1.5509367,118.46417)" />
    <g
       id="g494"
       transform="matrix(0.09707794,0,0,-0.11545481,1.5509367,118.46417)" />
    <g
       id="g496"
       transform="matrix(0.09707794,0,0,-0.11545481,1.5509367,118.46417)" />
    <g
       id="g498"
       transform="matrix(0.09707794,0,0,-0.11545481,1.5509367,118.46417)" />
    <g
       id="g500"
       transform="matrix(0.09707794,0,0,-0.11545481,1.5509367,118.46417)" />
    <g
       id="g506"
       transform="matrix(0.09707794,0,0,-0.11545481,1.5509367,118.46417)" />
    <g
       id="g608"
       transform="matrix(0.09707794,0,0,-0.11545481,1.5509367,118.46417)" />
    <g
       id="g610"
       transform="matrix(0.09707794,0,0,-0.11545481,1.5509367,118.46417)" />
    <g
       id="g612"
       transform="matrix(0.09707794,0,0,-0.11545481,1.5509367,118.46417)" />
    <g
       id="g614"
       transform="matrix(0.09707794,0,0,-0.11545481,1.5509367,118.46417)" />
    <g
       id="g616"
       transform="matrix(0.09707794,0,0,-0.11545481,1.5509367,118.46417)" />
    <g
       id="g618"
       transform="matrix(0.09707794,0,0,-0.11545481,1.5509367,118.46417)" />
    <g
       id="g620"
       transform="matrix(0.09707794,0,0,-0.11545481,1.5509367,118.46417)" />
    <g
       id="g622"
       transform="matrix(0.09707794,0,0,-0.11545481,1.5509367,118.46417)" />
    <g
       id="g624"
       transform="matrix(0.09707794,0,0,-0.11545481,1.5509367,118.46417)" />
    <g
       id="g626"
       transform="matrix(0.09707794,0,0,-0.11545481,1.5509367,118.46417)" />
    <g
       id="g628"
       transform="matrix(0.09707794,0,0,-0.11545481,1.5509367,118.46417)" />
    <g
       id="g630"
       transform="matrix(0.09707794,0,0,-0.11545481,1.5509367,118.46417)" />
    <g
       id="g636"
       transform="matrix(0.09707794,0,0,-0.11545481,1.5509367,118.46417)" />
    <g
       id="g638"
       transform="matrix(0.09707794,0,0,-0.11545481,1.5509367,118.46417)" />
    <g
       id="g654"
       transform="matrix(0.09707794,0,0,-0.11545481,1.5509367,118.46417)" />
    <g
       id="g664"
       transform="matrix(0.09707794,0,0,-0.11545481,1.5509367,118.46417)" />
    <g
       id="g666"
       transform="matrix(0.09707794,0,0,-0.11545481,1.5509367,118.46417)" />
    <g
       id="g668"
       transform="matrix(0.09707794,0,0,-0.11545481,1.5509367,118.46417)" />
    <g
       id="g670"
       transform="matrix(0.09707794,0,0,-0.11545481,1.5509367,118.46417)" />
    <g
       id="g672"
       transform="matrix(0.09707794,0,0,-0.11545481,1.5509367,118.46417)" />
    <g
       id="g674"
       transform="matrix(0.09707794,0,0,-0.11545481,1.5509367,118.46417)" />
    <g
       id="g680"
       transform="matrix(0.09707794,0,0,-0.11545481,1.5509367,118.46417)" />
    <g
       id="g682"
       transform="matrix(0.09707794,0,0,-0.11545481,1.5509367,118.46417)" />
    <g
       id="g690"
       transform="matrix(0.09707794,0,0,-0.11545481,1.5509367,118.46417)" />
    <g
       id="g702"
       transform="matrix(0.09707794,0,0,-0.11545481,1.5509367,118.46417)" />
    <g
       id="g704"
       transform="matrix(0.09707794,0,0,-0.11545481,1.5509367,118.46417)" />
    <g
       id="g706"
       transform="matrix(0.09707794,0,0,-0.11545481,1.5509367,118.46417)" />
    <g
       id="g708"
       transform="matrix(0.09707794,0,0,-0.11545481,1.5509367,118.46417)" />
    <g
       id="g710"
       transform="matrix(0.09707794,0,0,-0.11545481,1.5509367,118.46417)" />
    <g
       id="g718"
       transform="matrix(0.09707794,0,0,-0.11545481,1.5509367,118.46417)" />
    <g
       id="g726"
       transform="matrix(0.09707794,0,0,-0.11545481,1.5509367,118.46417)" />
    <g
       id="g728"
       transform="matrix(0.09707794,0,0,-0.11545481,1.5509367,118.46417)" />
    <g
       id="g730"
       transform="matrix(0.09707794,0,0,-0.11545481,1.5509367,118.46417)" />
    <g
       id="g732"
       transform="matrix(0.09707794,0,0,-0.11545481,1.5509367,118.46417)" />
    <g
       id="g734"
       transform="matrix(0.09707794,0,0,-0.11545481,1.5509367,118.46417)" />
    <g
       id="g736"
       transform="matrix(0.09707794,0,0,-0.11545481,1.5509367,118.46417)" />
    <g
       id="g738"
       transform="matrix(0.09707794,0,0,-0.11545481,1.5509367,118.46417)" />
    <g
       id="g740"
       transform="matrix(0.09707794,0,0,-0.11545481,1.5509367,118.46417)" />
    <g
       id="g742"
       transform="matrix(0.09707794,0,0,-0.11545481,1.5509367,118.46417)" />
    <g
       id="g744"
       transform="matrix(0.09707794,0,0,-0.11545481,1.5509367,118.46417)" />
    <g
       id="g746"
       transform="matrix(0.09707794,0,0,-0.11545481,1.5509367,118.46417)" />
    <g
       id="g748"
       transform="matrix(0.09707794,0,0,-0.11545481,1.5509367,118.46417)" />
    <g
       id="g912"
       transform="matrix(0.09707653,0,0,-0.11545758,70.922936,118.46544)" />
    <g
       id="g914"
       transform="matrix(0.09707653,0,0,-0.11545758,70.922936,118.46544)" />
    <g
       id="g916"
       transform="matrix(0.09707653,0,0,-0.11545758,70.922936,118.46544)" />
    <g
       id="g918"
       transform="matrix(0.09707653,0,0,-0.11545758,70.922936,118.46544)" />
    <g
       id="g920"
       transform="matrix(0.09707653,0,0,-0.11545758,70.922936,118.46544)" />
    <g
       id="g922"
       transform="matrix(0.09707653,0,0,-0.11545758,70.922936,118.46544)" />
    <g
       id="g924"
       transform="matrix(0.09707653,0,0,-0.11545758,70.922936,118.46544)" />
    <g
       id="g926"
       transform="matrix(0.09707653,0,0,-0.11545758,70.922936,118.46544)" />
    <g
       id="g928"
       transform="matrix(0.09707653,0,0,-0.11545758,70.922936,118.46544)" />
    <g
       id="g934"
       transform="matrix(0.09707653,0,0,-0.11545758,70.922936,118.46544)" />
    <g
       id="g1036"
       transform="matrix(0.09707653,0,0,-0.11545758,70.922936,118.46544)" />
    <g
       id="g1038"
       transform="matrix(0.09707653,0,0,-0.11545758,70.922936,118.46544)" />
    <g
       id="g1040"
       transform="matrix(0.09707653,0,0,-0.11545758,70.922936,118.46544)" />
    <g
       id="g1042"
       transform="matrix(0.09707653,0,0,-0.11545758,70.922936,118.46544)" />
    <g
       id="g1044"
       transform="matrix(0.09707653,0,0,-0.11545758,70.922936,118.46544)" />
    <g
       id="g1046"
       transform="matrix(0.09707653,0,0,-0.11545758,70.922936,118.46544)" />
    <g
       id="g1048"
       transform="matrix(0.09707653,0,0,-0.11545758,70.922936,118.46544)" />
    <g
       id="g1050"
       transform="matrix(0.09707653,0,0,-0.11545758,70.922936,118.46544)" />
    <g
       id="g1052"
       transform="matrix(0.09707653,0,0,-0.11545758,70.922936,118.46544)" />
    <g
       id="g1054"
       transform="matrix(0.09707653,0,0,-0.11545758,70.922936,118.46544)" />
    <g
       id="g1056"
       transform="matrix(0.09707653,0,0,-0.11545758,70.922936,118.46544)" />
    <g
       id="g1058"
       transform="matrix(0.09707653,0,0,-0.11545758,70.922936,118.46544)" />
    <g
       id="g1064"
       transform="matrix(0.09707653,0,0,-0.11545758,70.922936,118.46544)" />
    <g
       id="g1066"
       transform="matrix(0.09707653,0,0,-0.11545758,70.922936,118.46544)" />
    <g
       id="g1086"
       transform="matrix(0.09707653,0,0,-0.11545758,70.922936,118.46544)" />
    <g
       id="g1098"
       transform="matrix(0.09707653,0,0,-0.11545758,70.922936,118.46544)" />
    <g
       id="g1100"
       transform="matrix(0.09707653,0,0,-0.11545758,70.922936,118.46544)" />
    <g
       id="g1102"
       transform="matrix(0.09707653,0,0,-0.11545758,70.922936,118.46544)" />
    <g
       id="g1104"
       transform="matrix(0.09707653,0,0,-0.11545758,70.922936,118.46544)" />
    <g
       id="g1106"
       transform="matrix(0.09707653,0,0,-0.11545758,70.922936,118.46544)" />
    <g
       id="g1108"
       transform="matrix(0.09707653,0,0,-0.11545758,70.922936,118.46544)" />
    <g
       id="g1114"
       transform="matrix(0.09707653,0,0,-0.11545758,70.922936,118.46544)" />
    <g
       id="g1116"
       transform="matrix(0.09707653,0,0,-0.11545758,70.922936,118.46544)" />
    <g
       id="g1124"
       transform="matrix(0.09707653,0,0,-0.11545758,70.922936,118.46544)" />
    <g
       id="g1136"
       transform="matrix(0.09707653,0,0,-0.11545758,70.922936,118.46544)" />
    <g
       id="g1138"
       transform="matrix(0.09707653,0,0,-0.11545758,70.922936,118.46544)" />
    <g
       id="g1140"
       transform="matrix(0.09707653,0,0,-0.11545758,70.922936,118.46544)" />
    <g
       id="g1142"
       transform="matrix(0.09707653,0,0,-0.11545758,70.922936,118.46544)" />
    <g
       id="g1144"
       transform="matrix(0.09707653,0,0,-0.11545758,70.922936,118.46544)" />
    <g
       id="g1152"
       transform="matrix(0.09707653,0,0,-0.11545758,70.922936,118.46544)" />
    <g
       id="g1160"
       transform="matrix(0.09707653,0,0,-0.11545758,70.922936,118.46544)" />
    <g
       id="g1162"
       transform="matrix(0.09707653,0,0,-0.11545758,70.922936,118.46544)" />
    <g
       id="g1164"
       transform="matrix(0.09707653,0,0,-0.11545758,70.922936,118.46544)" />
    <g
       id="g1166"
       transform="matrix(0.09707653,0,0,-0.11545758,70.922936,118.46544)" />
    <g
       id="g1168"
       transform="matrix(0.09707653,0,0,-0.11545758,70.922936,118.46544)" />
    <g
       id="g1170"
       transform="matrix(0.09707653,0,0,-0.11545758,70.922936,118.46544)" />
    <g
       id="g1172"
       transform="matrix(0.09707653,0,0,-0.11545758,70.922936,118.46544)" />
    <g
       id="g1174"
       transform="matrix(0.09707653,0,0,-0.11545758,70.922936,118.46544)" />
    <g
       id="g1176"
       transform="matrix(0.09707653,0,0,-0.11545758,70.922936,118.46544)" />
    <g
       id="g1178"
       transform="matrix(0.09707653,0,0,-0.11545758,70.922936,118.46544)" />
    <g
       id="g1180"
       transform="matrix(0.09707653,0,0,-0.11545758,70.922936,118.46544)" />
    <g
       id="g1182"
       transform="matrix(0.09707653,0,0,-0.11545758,70.922936,118.46544)" />
    <g
       id="g1349"
       transform="matrix(0.09707795,0,0,-0.11545477,70.922736,56.942229)" />
    <g
       id="g1351"
       transform="matrix(0.09707795,0,0,-0.11545477,70.922736,56.942229)" />
    <g
       id="g1353"
       transform="matrix(0.09707795,0,0,-0.11545477,70.922736,56.942229)" />
    <g
       id="g1355"
       transform="matrix(0.09707795,0,0,-0.11545477,70.922736,56.942229)" />
    <g
       id="g1357"
       transform="matrix(0.09707795,0,0,-0.11545477,70.922736,56.942229)" />
    <g
       id="g1359"
       transform="matrix(0.09707795,0,0,-0.11545477,70.922736,56.942229)" />
    <g
       id="g1361"
       transform="matrix(0.09707795,0,0,-0.11545477,70.922736,56.942229)" />
    <g
       id="g1363"
       transform="matrix(0.09707795,0,0,-0.11545477,70.922736,56.942229)" />
    <g
       id="g1365"
       transform="matrix(0.09707795,0,0,-0.11545477,70.922736,56.942229)" />
    <g
       id="g1371"
       transform="matrix(0.09707795,0,0,-0.11545477,70.922736,56.942229)" />
    <g
       id="g1473"
       transform="matrix(0.09707795,0,0,-0.11545477,70.922736,56.942229)" />
    <g
       id="g1475"
       transform="matrix(0.09707795,0,0,-0.11545477,70.922736,56.942229)" />
    <g
       id="g1477"
       transform="matrix(0.09707795,0,0,-0.11545477,70.922736,56.942229)" />
    <g
       id="g1479"
       transform="matrix(0.09707795,0,0,-0.11545477,70.922736,56.942229)" />
    <g
       id="g1481"
       transform="matrix(0.09707795,0,0,-0.11545477,70.922736,56.942229)" />
    <g
       id="g1483"
       transform="matrix(0.09707795,0,0,-0.11545477,70.922736,56.942229)" />
    <g
       id="g1485"
       transform="matrix(0.09707795,0,0,-0.11545477,70.922736,56.942229)" />
    <g
       id="g1487"
       transform="matrix(0.09707795,0,0,-0.11545477,70.922736,56.942229)" />
    <g
       id="g1489"
       transform="matrix(0.09707795,0,0,-0.11545477,70.922736,56.942229)" />
    <g
       id="g1491"
       transform="matrix(0.09707795,0,0,-0.11545477,70.922736,56.942229)" />
    <g
       id="g1493"
       transform="matrix(0.09707795,0,0,-0.11545477,70.922736,56.942229)" />
    <g
       id="g1495"
       transform="matrix(0.09707795,0,0,-0.11545477,70.922736,56.942229)" />
    <g
       id="g1501"
       transform="matrix(0.09707795,0,0,-0.11545477,70.922736,56.942229)" />
    <g
       id="g1503"
       transform="matrix(0.09707795,0,0,-0.11545477,70.922736,56.942229)" />
    <g
       id="g1527"
       transform="matrix(0.09707795,0,0,-0.11545477,70.922736,56.942229)" />
    <g
       id="g1541"
       transform="matrix(0.09707795,0,0,-0.11545477,70.922736,56.942229)" />
    <g
       id="g1543"
       transform="matrix(0.09707795,0,0,-0.11545477,70.922736,56.942229)" />
    <g
       id="g1545"
       transform="matrix(0.09707795,0,0,-0.11545477,70.922736,56.942229)" />
    <g
       id="g1547"
       transform="matrix(0.09707795,0,0,-0.11545477,70.922736,56.942229)" />
    <g
       id="g1549"
       transform="matrix(0.09707795,0,0,-0.11545477,70.922736,56.942229)" />
    <g
       id="g1551"
       transform="matrix(0.09707795,0,0,-0.11545477,70.922736,56.942229)" />
    <g
       id="g1557"
       transform="matrix(0.09707795,0,0,-0.11545477,70.922736,56.942229)" />
    <g
       id="g1559"
       transform="matrix(0.09707795,0,0,-0.11545477,70.922736,56.942229)" />
    <g
       id="g1567"
       transform="matrix(0.09707795,0,0,-0.11545477,70.922736,56.942229)" />
    <g
       id="g1579"
       transform="matrix(0.09707795,0,0,-0.11545477,70.922736,56.942229)" />
    <g
       id="g1581"
       transform="matrix(0.09707795,0,0,-0.11545477,70.922736,56.942229)" />
    <g
       id="g1583"
       transform="matrix(0.09707795,0,0,-0.11545477,70.922736,56.942229)" />
    <g
       id="g1585"
       transform="matrix(0.09707795,0,0,-0.11545477,70.922736,56.942229)" />
    <g
       id="g1587"
       transform="matrix(0.09707795,0,0,-0.11545477,70.922736,56.942229)" />
    <g
       id="g1595"
       transform="matrix(0.09707795,0,0,-0.11545477,70.922736,56.942229)" />
    <g
       id="g1603"
       transform="matrix(0.09707795,0,0,-0.11545477,70.922736,56.942229)" />
    <g
       id="g1605"
       transform="matrix(0.09707795,0,0,-0.11545477,70.922736,56.942229)" />
    <g
       id="g1607"
       transform="matrix(0.09707795,0,0,-0.11545477,70.922736,56.942229)" />
    <g
       id="g1609"
       transform="matrix(0.09707795,0,0,-0.11545477,70.922736,56.942229)" />
    <g
       id="g1611"
       transform="matrix(0.09707795,0,0,-0.11545477,70.922736,56.942229)" />
    <g
       id="g1613"
       transform="matrix(0.09707795,0,0,-0.11545477,70.922736,56.942229)" />
    <g
       id="g1615"
       transform="matrix(0.09707795,0,0,-0.11545477,70.922736,56.942229)" />
    <g
       id="g1617"
       transform="matrix(0.09707795,0,0,-0.11545477,70.922736,56.942229)" />
    <g
       id="g1619"
       transform="matrix(0.09707795,0,0,-0.11545477,70.922736,56.942229)" />
    <g
       id="g1621"
       transform="matrix(0.09707795,0,0,-0.11545477,70.922736,56.942229)" />
    <g
       id="g1623"
       transform="matrix(0.09707795,0,0,-0.11545477,70.922736,56.942229)" />
    <g
       id="g1625"
       transform="matrix(0.09707795,0,0,-0.11545477,70.922736,56.942229)" />
    <g
       id="g1795"
       transform="matrix(0.09722222,0,0,-0.11574074,1.499,57.004)" />
    <g
       id="g1797"
       transform="matrix(0.09722222,0,0,-0.11574074,1.499,57.004)" />
    <g
       id="g1799"
       transform="matrix(0.09722222,0,0,-0.11574074,1.499,57.004)" />
    <g
       id="g1801"
       transform="matrix(0.09722222,0,0,-0.11574074,1.499,57.004)" />
    <g
       id="g1803"
       transform="matrix(0.09722222,0,0,-0.11574074,1.499,57.004)" />
    <g
       id="g1805"
       transform="matrix(0.09722222,0,0,-0.11574074,1.499,57.004)" />
    <g
       id="g1807"
       transform="matrix(0.09722222,0,0,-0.11574074,1.499,57.004)" />
    <g
       id="g1809"
       transform="matrix(0.09722222,0,0,-0.11574074,1.499,57.004)" />
    <g
       id="g1811"
       transform="matrix(0.09722222,0,0,-0.11574074,1.499,57.004)" />
    <g
       id="g1823"
       transform="matrix(0.09722222,0,0,-0.11574074,1.499,57.004)" />
    <g
       id="g1925"
       transform="matrix(0.09722222,0,0,-0.11574074,1.499,57.004)" />
    <g
       id="g1927"
       transform="matrix(0.09722222,0,0,-0.11574074,1.499,57.004)" />
    <g
       id="g1929"
       transform="matrix(0.09722222,0,0,-0.11574074,1.499,57.004)" />
    <g
       id="g1931"
       transform="matrix(0.09722222,0,0,-0.11574074,1.499,57.004)" />
    <g
       id="g1933"
       transform="matrix(0.09722222,0,0,-0.11574074,1.499,57.004)" />
    <g
       id="g1935"
       transform="matrix(0.09722222,0,0,-0.11574074,1.499,57.004)" />
    <g
       id="g1937"
       transform="matrix(0.09722222,0,0,-0.11574074,1.499,57.004)" />
    <g
       id="g1939"
       transform="matrix(0.09722222,0,0,-0.11574074,1.499,57.004)" />
    <g
       id="g1941"
       transform="matrix(0.09722222,0,0,-0.11574074,1.499,57.004)" />
    <g
       id="g1943"
       transform="matrix(0.09722222,0,0,-0.11574074,1.499,57.004)" />
    <g
       id="g1945"
       transform="matrix(0.09722222,0,0,-0.11574074,1.499,57.004)" />
    <g
       id="g1947"
       transform="matrix(0.09722222,0,0,-0.11574074,1.499,57.004)" />
    <g
       id="g1953"
       transform="matrix(0.09722222,0,0,-0.11574074,1.499,57.004)" />
    <g
       id="g1955"
       transform="matrix(0.09722222,0,0,-0.11574074,1.499,57.004)" />
    <g
       id="g1983"
       transform="matrix(0.09722222,0,0,-0.11574074,1.499,57.004)" />
    <g
       id="g1999"
       transform="matrix(0.09722222,0,0,-0.11574074,1.499,57.004)" />
    <g
       id="g2001"
       transform="matrix(0.09722222,0,0,-0.11574074,1.499,57.004)" />
    <g
       id="g2003"
       transform="matrix(0.09722222,0,0,-0.11574074,1.499,57.004)" />
    <g
       id="g2005"
       transform="matrix(0.09722222,0,0,-0.11574074,1.499,57.004)" />
    <g
       id="g2007"
       transform="matrix(0.09722222,0,0,-0.11574074,1.499,57.004)" />
    <g
       id="g2009"
       transform="matrix(0.09722222,0,0,-0.11574074,1.499,57.004)" />
    <g
       id="g2015"
       transform="matrix(0.09722222,0,0,-0.11574074,1.499,57.004)" />
    <g
       id="g2017"
       transform="matrix(0.09722222,0,0,-0.11574074,1.499,57.004)" />
    <g
       id="g2025"
       transform="matrix(0.09722222,0,0,-0.11574074,1.499,57.004)" />
    <g
       id="g2037"
       transform="matrix(0.09722222,0,0,-0.11574074,1.499,57.004)" />
    <g
       id="g2039"
       transform="matrix(0.09722222,0,0,-0.11574074,1.499,57.004)" />
    <g
       id="g2041"
       transform="matrix(0.09722222,0,0,-0.11574074,1.499,57.004)" />
    <g
       id="g2043"
       transform="matrix(0.09722222,0,0,-0.11574074,1.499,57.004)" />
    <g
       id="g2045"
       transform="matrix(0.09722222,0,0,-0.11574074,1.499,57.004)" />
    <g
       id="g2053"
       transform="matrix(0.09722222,0,0,-0.11574074,1.499,57.004)" />
    <g
       id="g2061"
       transform="matrix(0.09722222,0,0,-0.11574074,1.499,57.004)" />
    <g
       id="g2063"
       transform="matrix(0.09722222,0,0,-0.11574074,1.499,57.004)" />
    <g
       id="g2065"
       transform="matrix(0.09722222,0,0,-0.11574074,1.499,57.004)" />
    <g
       id="g2067"
       transform="matrix(0.09722222,0,0,-0.11574074,1.499,57.004)" />
    <g
       id="g2069"
       transform="matrix(0.09722222,0,0,-0.11574074,1.499,57.004)" />
    <g
       id="g2071"
       transform="matrix(0.09722222,0,0,-0.11574074,1.499,57.004)" />
    <g
       id="g2073"
       transform="matrix(0.09722222,0,0,-0.11574074,1.499,57.004)" />
    <g
       id="g2075"
       transform="matrix(0.09722222,0,0,-0.11574074,1.499,57.004)" />
    <g
       id="g2077"
       transform="matrix(0.09722222,0,0,-0.11574074,1.499,57.004)" />
    <g
       id="g2079"
       transform="matrix(0.09722222,0,0,-0.11574074,1.499,57.004)" />
    <g
       id="g2081"
       transform="matrix(0.09722222,0,0,-0.11574074,1.499,57.004)" />
    <g
       id="g2083"
       transform="matrix(0.09722222,0,0,-0.11574074,1.499,57.004)" />
  </g>
</svg>
