<?xml version="1.0" encoding="UTF-8" standalone="no"?>
<svg
   xmlns:dc="http://purl.org/dc/elements/1.1/"
   xmlns:cc="http://creativecommons.org/ns#"
   xmlns:rdf="http://www.w3.org/1999/02/22-rdf-syntax-ns#"
   xmlns:svg="http://www.w3.org/2000/svg"
   xmlns="http://www.w3.org/2000/svg"
   xmlns:sodipodi="http://sodipodi.sourceforge.net/DTD/sodipodi-0.dtd"
   xmlns:inkscape="http://www.inkscape.org/namespaces/inkscape"
   width="210mm"
   height="297mm"
   viewBox="0 0 210 297"
   version="1.1"
   id="svg8"
   inkscape:version="1.0.1 (3bc2e813f5, 2020-09-07)"
   sodipodi:docname="plot_regression_pc1.svg">
  <defs
     id="defs2">
    <rect
       x="57.608043"
       y="157.28984"
       width="3.1925242"
       height="3.6878431"
       id="rect1369" />
    <rect
       x="58.583979"
       y="157.80087"
       width="12.945701"
       height="9.9378458"
       id="rect1363" />
    <clipPath
       clipPathUnits="userSpaceOnUse"
       id="clipPath68">
      <path
         d="M 41.56,32.76 H 603.84 V 426.52 H 41.56 Z"
         id="path66" />
    </clipPath>
    <rect
       x="57.608043"
       y="157.28984"
       width="3.1925242"
       height="3.6878431"
       id="rect1377" />
    <rect
       x="58.583979"
       y="157.80087"
       width="12.945701"
       height="9.9378458"
       id="rect1387" />
    <rect
       x="58.583979"
       y="157.80087"
       width="12.945701"
       height="9.9378458"
       id="rect1393" />
    <rect
       x="58.583979"
       y="157.80087"
       width="12.945701"
       height="9.9378458"
       id="rect1399" />
    <rect
       x="58.583981"
       y="157.80087"
       width="12.945701"
       height="9.9378462"
       id="rect1363-3" />
    <rect
       x="58.583981"
       y="157.80087"
       width="12.945701"
       height="9.9378462"
       id="rect1410" />
    <rect
       x="58.583981"
       y="157.80087"
       width="12.945701"
       height="9.9378462"
       id="rect1387-6" />
    <rect
       x="58.583981"
       y="157.80087"
       width="12.945701"
       height="9.9378462"
       id="rect1439" />
    <rect
       x="58.583981"
       y="157.80087"
       width="12.945701"
       height="9.9378462"
       id="rect1393-7" />
    <rect
       x="58.583981"
       y="157.80087"
       width="12.945701"
       height="9.9378462"
       id="rect1468" />
    <rect
       x="58.583981"
       y="157.80087"
       width="12.945701"
       height="9.9378462"
       id="rect1399-5" />
    <rect
       x="58.583981"
       y="157.80087"
       width="12.945701"
       height="9.9378462"
       id="rect1497" />
  </defs>
  <sodipodi:namedview
     id="base"
     pagecolor="#ffffff"
     bordercolor="#666666"
     borderopacity="1.0"
     inkscape:pageopacity="0.0"
     inkscape:pageshadow="2"
     inkscape:zoom="0.98994949"
     inkscape:cx="459.96057"
     inkscape:cy="471.04647"
     inkscape:document-units="mm"
     inkscape:current-layer="layer1"
     inkscape:document-rotation="0"
     showgrid="false"
     inkscape:window-width="1366"
     inkscape:window-height="744"
     inkscape:window-x="0"
     inkscape:window-y="150"
     inkscape:window-maximized="0"
     inkscape:object-paths="true" />
  <metadata
     id="metadata5">
    <rdf:RDF>
      <cc:Work
         rdf:about="">
        <dc:format>image/svg+xml</dc:format>
        <dc:type
           rdf:resource="http://purl.org/dc/dcmitype/StillImage" />
        <dc:title />
      </cc:Work>
    </rdf:RDF>
  </metadata>
  <g
     inkscape:label="Layer 1"
     inkscape:groupmode="layer"
     id="layer1">
    <g
       id="g38"
       transform="matrix(0.35277777,0,0,-0.35277777,47.614044,213.34716)" />
    <g
       id="g40"
       transform="matrix(0.35277777,0,0,-0.35277777,47.614044,213.34716)" />
    <g
       id="g42"
       transform="matrix(0.35277777,0,0,-0.35277777,47.614044,213.34716)" />
    <g
       id="g44"
       transform="matrix(0.35277777,0,0,-0.35277777,47.614044,213.34716)" />
    <g
       id="g46"
       transform="matrix(0.35277777,0,0,-0.35277777,47.614044,213.34716)" />
    <g
       id="g48"
       transform="matrix(0.35277777,0,0,-0.35277777,47.614044,213.34716)" />
    <g
       id="g50"
       transform="matrix(0.35277777,0,0,-0.35277777,47.614044,213.34716)" />
    <g
       id="g52"
       transform="matrix(0.35277777,0,0,-0.35277777,47.614044,213.34716)" />
    <g
       id="g54"
       transform="matrix(0.35277777,0,0,-0.35277777,47.614044,213.34716)" />
    <g
       id="g60"
       transform="matrix(0.35277777,0,0,-0.35277777,47.614044,213.34716)" />
    <g
       id="g88"
       transform="matrix(0.35277777,0,0,-0.35277777,47.614044,213.34716)" />
    <g
       id="g90"
       transform="matrix(0.35277777,0,0,-0.35277777,47.614044,213.34716)" />
    <g
       id="g92"
       transform="matrix(0.35277777,0,0,-0.35277777,47.614044,213.34716)" />
    <g
       id="g94"
       transform="matrix(0.35277777,0,0,-0.35277777,47.614044,213.34716)" />
    <g
       id="g96"
       transform="matrix(0.35277777,0,0,-0.35277777,47.614044,213.34716)" />
    <g
       id="g98"
       transform="matrix(0.35277777,0,0,-0.35277777,47.614044,213.34716)" />
    <g
       id="g100"
       transform="matrix(0.35277777,0,0,-0.35277777,47.614044,213.34716)" />
    <g
       id="g102"
       transform="matrix(0.35277777,0,0,-0.35277777,47.614044,213.34716)" />
    <g
       id="g104"
       transform="matrix(0.35277777,0,0,-0.35277777,47.614044,213.34716)" />
    <g
       id="g106"
       transform="matrix(0.35277777,0,0,-0.35277777,47.614044,213.34716)" />
    <g
       id="g108"
       transform="matrix(0.35277777,0,0,-0.35277777,47.614044,213.34716)" />
    <g
       id="g110"
       transform="matrix(0.35277777,0,0,-0.35277777,47.614044,213.34716)" />
    <g
       id="g116"
       transform="matrix(0.35277777,0,0,-0.35277777,47.614044,213.34716)" />
    <g
       id="g118"
       transform="matrix(0.35277777,0,0,-0.35277777,47.614044,213.34716)" />
    <g
       id="g142"
       transform="matrix(0.35277777,0,0,-0.35277777,47.614044,213.34716)" />
    <g
       id="g156"
       transform="matrix(0.35277777,0,0,-0.35277777,47.614044,213.34716)" />
    <g
       id="g158"
       transform="matrix(0.35277777,0,0,-0.35277777,47.614044,213.34716)" />
    <g
       id="g160"
       transform="matrix(0.35277777,0,0,-0.35277777,47.614044,213.34716)" />
    <g
       id="g162"
       transform="matrix(0.35277777,0,0,-0.35277777,47.614044,213.34716)" />
    <g
       id="g164"
       transform="matrix(0.35277777,0,0,-0.35277777,47.614044,213.34716)" />
    <g
       id="g166"
       transform="matrix(0.35277777,0,0,-0.35277777,47.614044,213.34716)" />
    <g
       id="g172"
       transform="matrix(0.35277777,0,0,-0.35277777,47.614044,213.34716)" />
    <g
       id="g174"
       transform="matrix(0.35277777,0,0,-0.35277777,47.614044,213.34716)" />
    <g
       id="g186"
       transform="matrix(0.35277777,0,0,-0.35277777,47.614044,213.34716)" />
    <g
       id="g206"
       transform="matrix(0.35277777,0,0,-0.35277777,47.614044,213.34716)" />
    <g
       id="g208"
       transform="matrix(0.35277777,0,0,-0.35277777,47.614044,213.34716)" />
    <g
       id="g210"
       transform="matrix(0.35277777,0,0,-0.35277777,47.614044,213.34716)" />
    <g
       id="g212"
       transform="matrix(0.35277777,0,0,-0.35277777,47.614044,213.34716)" />
    <g
       id="g214"
       transform="matrix(0.35277777,0,0,-0.35277777,47.614044,213.34716)" />
    <g
       id="g222"
       transform="matrix(0.35277777,0,0,-0.35277777,47.614044,213.34716)" />
    <g
       id="g230"
       transform="matrix(0.35277777,0,0,-0.35277777,47.614044,213.34716)" />
    <g
       id="g232"
       transform="matrix(0.35277777,0,0,-0.35277777,47.614044,213.34716)" />
    <g
       id="g234"
       transform="matrix(0.35277777,0,0,-0.35277777,47.614044,213.34716)" />
    <g
       id="g236"
       transform="matrix(0.35277777,0,0,-0.35277777,47.614044,213.34716)" />
    <g
       id="g238"
       transform="matrix(0.35277777,0,0,-0.35277777,47.614044,213.34716)" />
    <g
       id="g240"
       transform="matrix(0.35277777,0,0,-0.35277777,47.614044,213.34716)" />
    <g
       id="g242"
       transform="matrix(0.35277777,0,0,-0.35277777,47.614044,213.34716)" />
    <g
       id="g248"
       transform="matrix(0.35277777,0,0,-0.35277777,47.614044,213.34716)" />
    <g
       id="g250"
       transform="matrix(0.35277777,0,0,-0.35277777,47.614044,213.34716)" />
    <g
       id="g252"
       transform="matrix(0.35277777,0,0,-0.35277777,47.614044,213.34716)" />
    <g
       id="g260"
       transform="matrix(0.35277777,0,0,-0.35277777,47.614044,213.34716)" />
    <g
       id="g262"
       transform="matrix(0.35277777,0,0,-0.35277777,47.614044,213.34716)" />
    <g
       id="g264"
       transform="matrix(0.35277777,0,0,-0.35277777,47.614044,213.34716)" />
    <g
       id="g266"
       transform="matrix(0.35277777,0,0,-0.35277777,47.614044,213.34716)" />
    <g
       id="g272"
       transform="matrix(0.35277777,0,0,-0.35277777,47.614044,213.34716)" />
    <g
       id="g278"
       transform="matrix(0.35277777,0,0,-0.35277777,47.614044,213.34716)" />
    <g
       id="g280"
       transform="matrix(0.35277777,0,0,-0.35277777,47.614044,213.34716)" />
    <g
       id="g282"
       transform="matrix(0.35277777,0,0,-0.35277777,47.614044,213.34716)" />
    <g
       id="g288"
       transform="matrix(0.35277777,0,0,-0.35277777,47.614044,213.34716)" />
    <g
       id="g294"
       transform="matrix(0.35277777,0,0,-0.35277777,47.614044,213.34716)" />
    <g
       id="g296"
       transform="matrix(0.35277777,0,0,-0.35277777,47.614044,213.34716)" />
    <g
       id="g298"
       transform="matrix(0.35277777,0,0,-0.35277777,47.614044,213.34716)" />
    <g
       id="g304"
       transform="matrix(0.35277777,0,0,-0.35277777,47.614044,213.34716)" />
    <g
       id="g310"
       transform="matrix(0.35277777,0,0,-0.35277777,47.614044,213.34716)" />
    <g
       id="g312"
       transform="matrix(0.35277777,0,0,-0.35277777,47.614044,213.34716)" />
    <g
       id="g314"
       transform="matrix(0.35277777,0,0,-0.35277777,47.614044,213.34716)" />
    <g
       id="g320"
       transform="matrix(0.35277777,0,0,-0.35277777,47.614044,213.34716)" />
    <g
       id="g326"
       transform="matrix(0.35277777,0,0,-0.35277777,47.614044,213.34716)" />
    <g
       id="g328"
       transform="matrix(0.35277777,0,0,-0.35277777,47.614044,213.34716)" />
    <g
       id="g330"
       transform="matrix(0.35277777,0,0,-0.35277777,47.614044,213.34716)" />
    <g
       id="g338"
       transform="matrix(0.35277777,0,0,-0.35277777,47.614044,213.34716)" />
    <g
       id="g340"
       transform="matrix(0.35277777,0,0,-0.35277777,47.614044,213.34716)" />
    <g
       id="g342"
       transform="matrix(0.35277777,0,0,-0.35277777,47.614044,213.34716)" />
    <g
       id="g344"
       transform="matrix(0.35277777,0,0,-0.35277777,47.614044,213.34716)" />
    <g
       id="g352"
       transform="matrix(0.35277777,0,0,-0.35277777,47.614044,213.34716)" />
    <g
       id="g354"
       transform="matrix(0.35277777,0,0,-0.35277777,47.614044,213.34716)" />
    <g
       id="g356"
       transform="matrix(0.35277777,0,0,-0.35277777,47.614044,213.34716)" />
    <g
       id="g358"
       transform="matrix(0.35277777,0,0,-0.35277777,47.614044,213.34716)" />
    <g
       id="g366"
       transform="matrix(0.35277777,0,0,-0.35277777,47.614044,213.34716)" />
    <g
       id="g368"
       transform="matrix(0.35277777,0,0,-0.35277777,47.614044,213.34716)" />
    <g
       id="g370"
       transform="matrix(0.35277777,0,0,-0.35277777,47.614044,213.34716)" />
    <g
       id="g372"
       transform="matrix(0.35277777,0,0,-0.35277777,47.614044,213.34716)" />
    <g
       id="g380"
       transform="matrix(0.35277777,0,0,-0.35277777,47.614044,213.34716)" />
    <g
       id="g382"
       transform="matrix(0.35277777,0,0,-0.35277777,47.614044,213.34716)" />
    <g
       id="g384"
       transform="matrix(0.35277777,0,0,-0.35277777,47.614044,213.34716)" />
    <g
       id="g386"
       transform="matrix(0.35277777,0,0,-0.35277777,47.614044,213.34716)" />
    <g
       id="g388"
       transform="matrix(0.35277777,0,0,-0.35277777,47.614044,213.34716)" />
    <g
       id="g390"
       transform="matrix(0.35277777,0,0,-0.35277777,47.614044,213.34716)" />
    <g
       id="g392"
       transform="matrix(0.35277777,0,0,-0.35277777,47.614044,213.34716)" />
    <g
       id="g394"
       transform="matrix(0.35277777,0,0,-0.35277777,47.614044,213.34716)" />
    <g
       id="g396"
       transform="matrix(0.35277777,0,0,-0.35277777,47.614044,213.34716)" />
    <g
       id="g398"
       transform="matrix(0.35277777,0,0,-0.35277777,47.614044,213.34716)" />
    <g
       id="g400"
       transform="matrix(0.35277777,0,0,-0.35277777,47.614044,213.34716)" />
    <g
       id="g402"
       transform="matrix(0.35277777,0,0,-0.35277777,47.614044,213.34716)" />
    <g
       id="g404"
       transform="matrix(0.35277777,0,0,-0.35277777,47.614044,213.34716)" />
    <text
       xml:space="preserve"
       id="text1367"
       style="line-height:1.05;font-family:sans-serif;font-size:1.41111111px;word-spacing:0px;letter-spacing:0.52916667px;white-space:pre;shape-inside:url(#rect1369);" />
    <text
       xml:space="preserve"
       id="text1375"
       style="line-height:1.05;font-family:sans-serif;font-size:1.41111111px;word-spacing:0px;letter-spacing:0.52916667px;white-space:pre;shape-inside:url(#rect1377);" />
    <text
       xml:space="preserve"
       style="font-size:1.41111px;line-height:1.05;font-family:sans-serif;letter-spacing:0.529167px;word-spacing:0px;stroke-width:0.264583"
       x="78.712173"
       y="161.1499"
       id="text1381"><tspan
         sodipodi:role="line"
         id="tspan1379"
         x="78.712173"
         y="161.1499"
         style="stroke-width:0.264583"></tspan></text>
    <g
       id="g26586">
      <g
         id="g26457">
        <g
           id="g26329">
          <g
             id="g26202">
            <path
               d="m 65.656913,134.69418 14.242471,-1.70792 14.244138,-1.70793 14.242468,-1.7065 14.24415,-1.70792 14.24246,-1.70793 14.24414,-1.7065"
               style="fill:none;stroke:#f0e442;stroke-width:0.165192;stroke-linecap:butt;stroke-linejoin:round;stroke-miterlimit:10;stroke-dasharray:none;stroke-opacity:1"
               id="path72" />
            <path
               d="m 65.656913,132.44166 14.242471,-7.50603 14.244138,-7.50746 14.242468,-7.50746 14.24415,-7.50603 14.24246,-7.50745 14.24414,-7.50603"
               style="fill:none;stroke:#009e73;stroke-width:0.165192;stroke-linecap:butt;stroke-linejoin:round;stroke-miterlimit:10;stroke-dasharray:none;stroke-opacity:1"
               id="path74" />
            <path
               d="m 65.656913,138.43365 14.242471,-2.13277 14.244138,-2.13276 14.242468,-2.13277 14.24415,-2.13277 14.24246,-2.13277 14.24414,-2.13276"
               style="fill:none;stroke:#56b4e9;stroke-width:0.165192;stroke-linecap:butt;stroke-linejoin:round;stroke-miterlimit:10;stroke-dasharray:none;stroke-opacity:1"
               id="path76" />
            <path
               d="m 65.656913,136.78561 14.242471,-8.1376 14.244138,-8.13901 14.242468,-8.1376 14.24415,-8.13901 14.24246,-8.137596 14.24414,-8.139018"
               style="fill:none;stroke:#0072b2;stroke-width:0.165192;stroke-linecap:butt;stroke-linejoin:round;stroke-miterlimit:10;stroke-dasharray:none;stroke-opacity:1"
               id="path78" />
            <path
               d="m 65.656913,134.69418 14.242471,-1.70792 14.244138,-1.70793 14.242468,-1.7065 14.24415,-1.70792 14.24246,-1.70793 14.24414,-1.7065"
               style="fill:none;stroke:#f0e442;stroke-width:0.32884;stroke-linecap:butt;stroke-linejoin:round;stroke-miterlimit:10;stroke-dasharray:none;stroke-opacity:1"
               id="path80" />
            <path
               d="m 65.656913,132.44166 14.242471,-7.50603 14.244138,-7.50746 14.242468,-7.50746 14.24415,-7.50603 14.24246,-7.50745 14.24414,-7.50603"
               style="fill:none;stroke:#009e73;stroke-width:0.32884;stroke-linecap:butt;stroke-linejoin:round;stroke-miterlimit:10;stroke-dasharray:none;stroke-opacity:1"
               id="path82" />
            <path
               d="m 65.656913,138.43365 14.242471,-2.13277 14.244138,-2.13276 14.242468,-2.13277 14.24415,-2.13277 14.24246,-2.13277 14.24414,-2.13276"
               style="fill:none;stroke:#56b4e9;stroke-width:0.32884;stroke-linecap:butt;stroke-linejoin:round;stroke-miterlimit:10;stroke-dasharray:none;stroke-opacity:1"
               id="path84" />
            <path
               d="m 65.656913,136.78561 14.242471,-8.1376 14.244138,-8.13901 14.242468,-8.1376 14.24415,-8.13901 14.24246,-8.137596 14.24414,-8.139018"
               style="fill:none;stroke:#0072b2;stroke-width:0.32884;stroke-linecap:butt;stroke-linejoin:round;stroke-miterlimit:10;stroke-dasharray:none;stroke-opacity:1"
               id="path86" />
            <path
               d="M 61.38367,140.98556 V 84.849292"
               style="fill:none;stroke:#000000;stroke-width:0.165192;stroke-linecap:butt;stroke-linejoin:round;stroke-miterlimit:10;stroke-dasharray:none;stroke-opacity:1"
               id="path114" />
            <text
               style="font-variant:normal;font-weight:normal;font-size:1.41111px;font-family:sans-serif;-inkscape-font-specification:sans-serif;writing-mode:lr-tb;white-space:pre;inline-size:11.6627;fill:#4d4d4d;fill-opacity:1;fill-rule:nonzero;stroke:none;stroke-width:0.154385"
               id="text124"
               x="53.219608"
               y="144.74239"
               transform="matrix(1.08291,0,0,0.92343777,-0.20784615,0)"
               xml:space="preserve"><tspan
                 x="53.219608"
                 y="144.74239"><tspan
                   style="font-size:1.41111px;stroke-width:0.154385">0.15</tspan></tspan></text>
            <text
               style="font-variant:normal;font-weight:normal;font-size:1.41111px;font-family:sans-serif;-inkscape-font-specification:sans-serif;writing-mode:lr-tb;white-space:pre;inline-size:6.76702;fill:#4d4d4d;fill-opacity:1;fill-rule:nonzero;stroke:none;stroke-width:0.154385"
               id="text128"
               x="53.219608"
               y="131.666"
               transform="matrix(1.08291,0,0,0.92343777,-0.20784615,0)"
               xml:space="preserve"><tspan
                 x="53.219608"
                 y="131.666"><tspan
                   style="font-size:1.41111px;stroke-width:0.154385">0.20</tspan></tspan></text>
            <text
               style="font-variant:normal;font-weight:normal;font-size:1.41111px;font-family:sans-serif;-inkscape-font-specification:sans-serif;writing-mode:lr-tb;white-space:pre;inline-size:14.5253;fill:#4d4d4d;fill-opacity:1;fill-rule:nonzero;stroke:none;stroke-width:0.154385"
               id="text132"
               x="53.219608"
               y="118.58807"
               transform="matrix(1.08291,0,0,0.92343777,-0.20784615,0)"
               xml:space="preserve"><tspan
                 x="53.219608"
                 y="118.58807"><tspan
                   style="font-size:1.41111px;stroke-width:0.154385">0.25</tspan></tspan></text>
            <text
               style="font-variant:normal;font-weight:normal;font-size:1.41111px;font-family:sans-serif;-inkscape-font-specification:sans-serif;writing-mode:lr-tb;white-space:pre;inline-size:5.10514;fill:#4d4d4d;fill-opacity:1;fill-rule:nonzero;stroke:none;stroke-width:0.154385"
               id="text136"
               x="53.219608"
               y="105.51169"
               transform="matrix(1.08291,0,0,0.92343777,-0.20784615,0)"
               xml:space="preserve"><tspan
                 x="53.219608"
                 y="105.51169"><tspan
                   style="font-size:1.41111px;stroke-width:0.154385">0.30</tspan></tspan></text>
            <text
               style="font-variant:normal;font-weight:normal;font-size:1.41111px;font-family:sans-serif;-inkscape-font-specification:sans-serif;writing-mode:lr-tb;white-space:pre;inline-size:4.66495;fill:#4d4d4d;fill-opacity:1;fill-rule:nonzero;stroke:none;stroke-width:0.154385"
               id="text140"
               x="53.219608"
               y="92.435303"
               transform="matrix(1.08291,0,0,0.92343777,-0.20765015,0)"
               xml:space="preserve"><tspan
                 x="53.219608"
                 y="92.435303"><tspan
                   style="font-size:1.41111px;stroke-width:0.154385">0.35</tspan></tspan></text>
            <path
               d="M 60.925584,133.2001 H 61.38367"
               style="fill:none;stroke:#333333;stroke-width:0.165192;stroke-linecap:butt;stroke-linejoin:round;stroke-miterlimit:10;stroke-dasharray:none;stroke-opacity:1"
               id="path146" />
            <path
               d="M 60.925584,121.12488 H 61.38367"
               style="fill:none;stroke:#333333;stroke-width:0.165192;stroke-linecap:butt;stroke-linejoin:round;stroke-miterlimit:10;stroke-dasharray:none;stroke-opacity:1"
               id="path148" />
            <path
               d="M 60.925584,109.04822 H 61.38367"
               style="fill:none;stroke:#333333;stroke-width:0.165192;stroke-linecap:butt;stroke-linejoin:round;stroke-miterlimit:10;stroke-dasharray:none;stroke-opacity:1"
               id="path150" />
            <path
               d="M 60.925584,96.972992 H 61.38367"
               style="fill:none;stroke:#333333;stroke-width:0.165192;stroke-linecap:butt;stroke-linejoin:round;stroke-miterlimit:10;stroke-dasharray:none;stroke-opacity:1"
               id="path152" />
            <path
               d="M 60.925584,84.897764 H 61.38367"
               style="fill:none;stroke:#333333;stroke-width:0.165192;stroke-linecap:butt;stroke-linejoin:round;stroke-miterlimit:10;stroke-dasharray:none;stroke-opacity:1"
               id="path154" />
            <path
               d="m 61.38367,140.98556 h 94.00464"
               style="fill:none;stroke:#000000;stroke-width:0.165192;stroke-linecap:butt;stroke-linejoin:round;stroke-miterlimit:10;stroke-dasharray:none;stroke-opacity:1"
               id="path170" />
            <path
               d="m 65.656913,141.37619 v -0.39063"
               style="fill:none;stroke:#333333;stroke-width:0.165192;stroke-linecap:butt;stroke-linejoin:round;stroke-miterlimit:10;stroke-dasharray:none;stroke-opacity:1"
               id="path178" />
            <path
               d="m 94.143522,141.37619 v -0.39063"
               style="fill:none;stroke:#333333;stroke-width:0.165192;stroke-linecap:butt;stroke-linejoin:round;stroke-miterlimit:10;stroke-dasharray:none;stroke-opacity:1"
               id="path180" />
            <path
               d="m 122.63014,141.37619 v -0.39063"
               style="fill:none;stroke:#333333;stroke-width:0.165192;stroke-linecap:butt;stroke-linejoin:round;stroke-miterlimit:10;stroke-dasharray:none;stroke-opacity:1"
               id="path182" />
            <path
               d="m 151.11674,141.37619 v -0.39063"
               style="fill:none;stroke:#333333;stroke-width:0.165192;stroke-linecap:butt;stroke-linejoin:round;stroke-miterlimit:10;stroke-dasharray:none;stroke-opacity:1"
               id="path184" />
            <text
               style="font-variant:normal;font-weight:normal;font-size:1.41111px;font-family:sans-serif;-inkscape-font-specification:sans-serif;writing-mode:lr-tb;fill:#4d4d4d;fill-opacity:1;fill-rule:nonzero;stroke:none;stroke-width:0.154385"
               id="text192"
               x="59.360023"
               y="154.4735"
               transform="scale(1.08291,0.92343777)"><tspan
                 x="59.360023 60.171471"
                 y="154.4735"
                 sodipodi:role="line"
                 id="tspan190"
                 style="font-size:1.41111px;stroke-width:0.154385">−2</tspan></text>
            <text
               style="font-variant:normal;font-weight:normal;font-size:1.41111px;font-family:sans-serif;-inkscape-font-specification:sans-serif;writing-mode:lr-tb;fill:#4d4d4d;fill-opacity:1;fill-rule:nonzero;stroke:none;stroke-width:0.154385"
               id="text196"
               x="86.46022"
               y="154.474"
               transform="scale(1.08291,0.92343777)"><tspan
                 x="86.46022"
                 y="154.474"
                 id="tspan194"
                 style="font-size:1.41111px;stroke-width:0.154385">0</tspan></text>
            <text
               style="font-variant:normal;font-weight:normal;font-size:1.41111px;font-family:sans-serif;-inkscape-font-specification:sans-serif;writing-mode:lr-tb;fill:#4d4d4d;fill-opacity:1;fill-rule:nonzero;stroke:none;stroke-width:0.154385"
               id="text200"
               x="112.80604"
               y="154.474"
               transform="scale(1.08291,0.92343777)"><tspan
                 x="112.80604"
                 y="154.474"
                 id="tspan198"
                 style="font-size:1.41111px;stroke-width:0.154385">2</tspan></text>
            <text
               style="font-variant:normal;font-weight:normal;font-size:1.41111px;font-family:sans-serif;-inkscape-font-specification:sans-serif;writing-mode:lr-tb;fill:#4d4d4d;fill-opacity:1;fill-rule:nonzero;stroke:none;stroke-width:0.154385"
               id="text204"
               x="139.0024"
               y="154.4554"
               transform="scale(1.08291,0.92343777)"><tspan
                 x="139.0024"
                 y="154.4554"
                 id="tspan202"
                 style="font-size:1.41111px;stroke-width:0.154385">4</tspan></text>
            <text
               style="font-variant:normal;font-weight:normal;font-size:1.76389px;font-family:sans-serif;-inkscape-font-specification:sans-serif;writing-mode:lr-tb;white-space:pre;inline-size:15.6111;fill:#000000;fill-opacity:1;fill-rule:nonzero;stroke:none;stroke-width:0.154385"
               id="text220"
               x="98.437347"
               y="156.42314"
               transform="scale(1.08291,0.92343777)"
               xml:space="preserve"><tspan
                 x="98.437347"
                 y="156.42314"><tspan
                   style="font-size:1.76389px;stroke-width:0.154385">PC1</tspan></tspan></text>
            <text
               transform="matrix(0,-0.92343777,1.08291,0,-1.4241596,1.7575288)"
               style="font-variant:normal;font-weight:normal;font-size:1.76389px;font-family:sans-serif;-inkscape-font-specification:sans-serif;writing-mode:lr-tb;white-space:pre;inline-size:32.1022;fill:#000000;fill-opacity:1;fill-rule:nonzero;stroke:none;stroke-width:0.154385"
               id="text228"
               x="-124.09343"
               y="52.333439"
               xml:space="preserve"><tspan
                 x="-124.09343"
                 y="52.333439"><tspan
                   style="font-size:1.76389px;stroke-width:0.154385">Absolute growth rate 
</tspan></tspan></text>
            <text
               xml:space="preserve"
               id="text1361"
               style="font-size:1.76389px;line-height:1.05;font-family:sans-serif;letter-spacing:0.529167px;word-spacing:0px;white-space:pre;shape-inside:url(#rect1363-3);"
               transform="translate(92.49423,-72.086198)"><tspan
                 x="58.583984"
                 y="159.18502"><tspan
                   style="font-size:1.76389px">A</tspan></tspan></text>
            <text
               xml:space="preserve"
               id="text1385"
               style="font-size:1.76389px;line-height:1.05;font-family:sans-serif;letter-spacing:0.529167px;word-spacing:0px;white-space:pre;shape-inside:url(#rect1387-6);"
               transform="translate(92.377315,-69.953815)"><tspan
                 x="58.583984"
                 y="159.18502"><tspan
                   style="font-size:1.76389px">A</tspan></tspan></text>
            <text
               xml:space="preserve"
               id="text1391"
               style="font-size:1.76389px;line-height:1.05;font-family:sans-serif;letter-spacing:0.529167px;word-spacing:0px;white-space:pre;shape-inside:url(#rect1393-7);"
               transform="translate(92.489178,-34.670577)"><tspan
                 x="58.583984"
                 y="159.18502"><tspan
                   style="font-size:1.76389px">B</tspan></tspan></text>
            <text
               xml:space="preserve"
               id="text1397"
               style="font-size:1.76389px;line-height:1.05;font-family:sans-serif;letter-spacing:0.529167px;word-spacing:0px;white-space:pre;shape-inside:url(#rect1399-5);"
               transform="translate(92.515942,-32.537926)"><tspan
                 x="58.583984"
                 y="159.18502"><tspan
                   style="font-size:1.76389px">B</tspan></tspan></text>
            <g
               id="g18469"
               transform="translate(-5.4516322,47.726024)">
              <g
                 id="g18397">
                <g
                   id="g18326">
                  <text
                     transform="scale(0.91658768,1.0910031)"
                     style="font-variant:normal;font-weight:normal;font-size:1.76389px;font-family:sans-serif;-inkscape-font-specification:sans-serif;writing-mode:lr-tb;fill:#000000;fill-opacity:1;fill-rule:nonzero;stroke:none;stroke-width:0.105875"
                     id="text17387"
                     x="118.91416"
                     y="93.390419"><tspan
                       x="118.91416"
                       sodipodi:role="line"
                       id="tspan17385"
                       y="93.390419"
                       style="stroke-width:0.105875">Treatments</tspan></text>
                  <g
                     id="g18098">
                    <g
                       id="g18079">
                      <g
                         id="g18061">
                        <g
                           id="g18044">
                          <g
                             id="g18028">
                            <g
                               id="g18013">
                              <path
                                 d="m 115.23601,103.83765 c 0,-0.1236 0.0854,-0.22525 0.18924,-0.22525 0.1048,0 0.1902,0.10165 0.1902,0.22525 0,0.12475 -0.0854,0.2264 -0.1902,0.2264 -0.10384,0 -0.18924,-0.10165 -0.18924,-0.2264"
                                 style="fill:#56b4e9;fill-opacity:1;fill-rule:nonzero;stroke:#56b4e9;stroke-width:0.0751711;stroke-linecap:round;stroke-linejoin:round;stroke-miterlimit:10;stroke-dasharray:none;stroke-opacity:1"
                                 id="path17390" />
                              <path
                                 d="m 114.75468,103.83765 h 1.34211"
                                 style="fill:none;stroke:#56b4e9;stroke-width:0.113286;stroke-linecap:butt;stroke-linejoin:round;stroke-miterlimit:10;stroke-dasharray:0.452086, 0.452086;stroke-dashoffset:0;stroke-opacity:1"
                                 id="path17392" />
                              <path
                                 d="m 114.75468,103.83765 h 1.34211"
                                 style="fill:none;stroke:#56b4e9;stroke-width:0.113286;stroke-linecap:butt;stroke-linejoin:round;stroke-miterlimit:10;stroke-dasharray:none;stroke-opacity:1"
                                 id="path17394" />
                              <text
                                 transform="matrix(0.09704357,0,0,0.11550978,116.53786,104.51151)"
                                 style="font-variant:normal;font-weight:normal;font-size:16.6601px;font-family:sans-serif;-inkscape-font-specification:sans-serif;writing-mode:lr-tb;white-space:pre;inline-size:219.207;fill:#000000;fill-opacity:1;fill-rule:nonzero;stroke:none"
                                 id="text17400"
                                 xml:space="preserve"><tspan
                                   x="0"
                                   y="0"><tspan>Ambient Rain plus water</tspan></tspan></text>
                              <path
                                 d="m 115.23601,103.83765 c 0,-0.1236 0.0854,-0.22525 0.18924,-0.22525 0.1048,0 0.1902,0.10165 0.1902,0.22525 0,0.12475 -0.0854,0.2264 -0.1902,0.2264 -0.10384,0 -0.18924,-0.10165 -0.18924,-0.2264"
                                 style="fill:#56b4e9;fill-opacity:1;fill-rule:nonzero;stroke:#56b4e9;stroke-width:0.0751711;stroke-linecap:round;stroke-linejoin:round;stroke-miterlimit:10;stroke-dasharray:none;stroke-opacity:1"
                                 id="path17402" />
                              <path
                                 d="m 114.75468,103.83765 h 1.34211"
                                 style="fill:none;stroke:#56b4e9;stroke-width:0.113286;stroke-linecap:butt;stroke-linejoin:round;stroke-miterlimit:10;stroke-dasharray:0.452086, 0.452086;stroke-dashoffset:0;stroke-opacity:1"
                                 id="path17404" />
                              <path
                                 d="m 114.75468,103.83765 h 1.34211"
                                 style="fill:none;stroke:#56b4e9;stroke-width:0.113286;stroke-linecap:butt;stroke-linejoin:round;stroke-miterlimit:10;stroke-dasharray:none;stroke-opacity:1"
                                 id="path17406" />
                              <text
                                 transform="matrix(0.09704357,0,0,0.11550978,116.53786,104.51151)"
                                 style="font-variant:normal;font-weight:normal;font-size:16.6601px;font-family:sans-serif;-inkscape-font-specification:sans-serif;writing-mode:lr-tb;white-space:pre;inline-size:219.207;fill:#000000;fill-opacity:1;fill-rule:nonzero;stroke:none"
                                 id="text17412"
                                 xml:space="preserve"><tspan
                                   x="0"
                                   y="0"><tspan>Ambient Rain plus water</tspan></tspan></text>
                            </g>
                          </g>
                        </g>
                      </g>
                    </g>
                  </g>
                  <g
                     id="g18199"
                     transform="translate(0,-2.8673335)">
                    <g
                       id="g18182">
                      <g
                         id="g18166">
                        <g
                           id="g18151">
                          <path
                             d="m 88.283308,109.38906 c 0,-0.1236 0.0854,-0.22525 0.190206,-0.22525 0.103836,0 0.189235,0.10165 0.189235,0.22525 0,0.12475 -0.0854,0.2264 -0.189235,0.2264 -0.104807,0 -0.190206,-0.10165 -0.190206,-0.2264"
                             style="fill:#009e73;fill-opacity:1;fill-rule:nonzero;stroke:#009e73;stroke-width:0.0751711;stroke-linecap:round;stroke-linejoin:round;stroke-miterlimit:10;stroke-dasharray:none;stroke-opacity:1"
                             id="path17414" />
                          <path
                             d="m 87.801974,109.38906 h 1.34211"
                             style="fill:none;stroke:#009e73;stroke-width:0.113286;stroke-linecap:butt;stroke-linejoin:round;stroke-miterlimit:10;stroke-dasharray:0.452086, 0.452086;stroke-dashoffset:0;stroke-opacity:1"
                             id="path17416" />
                          <path
                             d="m 87.801974,109.38906 h 1.34211"
                             style="fill:none;stroke:#009e73;stroke-width:0.113286;stroke-linecap:butt;stroke-linejoin:round;stroke-miterlimit:10;stroke-dasharray:none;stroke-opacity:1"
                             id="path17418" />
                          <text
                             transform="matrix(0.09704357,0,0,0.11550978,89.514204,110.00743)"
                             style="font-variant:normal;font-weight:normal;font-size:16.6601px;font-family:sans-serif;-inkscape-font-specification:sans-serif;writing-mode:lr-tb;white-space:pre;inline-size:264.289;fill:#000000;fill-opacity:1;fill-rule:nonzero;stroke:none"
                             id="text17424"
                             xml:space="preserve"><tspan
                               x="0"
                               y="0"><tspan
                                 style="font-size:16.6601px">Ambient Rain plus nutrients</tspan></tspan></text>
                          <path
                             d="m 88.283308,109.38906 c 0,-0.1236 0.0854,-0.22525 0.190206,-0.22525 0.103836,0 0.189235,0.10165 0.189235,0.22525 0,0.12475 -0.0854,0.2264 -0.189235,0.2264 -0.104807,0 -0.190206,-0.10165 -0.190206,-0.2264"
                             style="fill:#009e73;fill-opacity:1;fill-rule:nonzero;stroke:#009e73;stroke-width:0.0751711;stroke-linecap:round;stroke-linejoin:round;stroke-miterlimit:10;stroke-dasharray:none;stroke-opacity:1"
                             id="path17426" />
                          <path
                             d="m 87.801972,109.38906 h 1.342113"
                             style="fill:none;stroke:#009e73;stroke-width:0.113286;stroke-linecap:butt;stroke-linejoin:round;stroke-miterlimit:10;stroke-dasharray:0.452086, 0.452086;stroke-dashoffset:0;stroke-opacity:1"
                             id="path17428" />
                          <path
                             d="m 87.801972,109.38906 h 1.342113"
                             style="fill:none;stroke:#009e73;stroke-width:0.113286;stroke-linecap:butt;stroke-linejoin:round;stroke-miterlimit:10;stroke-dasharray:none;stroke-opacity:1"
                             id="path17430" />
                          <text
                             transform="matrix(0.09704357,0,0,0.11550978,89.514204,110.00743)"
                             style="font-variant:normal;font-weight:normal;font-size:16.6601px;font-family:sans-serif;-inkscape-font-specification:sans-serif;writing-mode:lr-tb;white-space:pre;inline-size:264.289;fill:#000000;fill-opacity:1;fill-rule:nonzero;stroke:none"
                             id="text17436"
                             xml:space="preserve"><tspan
                               x="0"
                               y="0"><tspan
                                 style="font-size:16.6601px">Ambient Rain plus nutrients</tspan></tspan></text>
                        </g>
                      </g>
                    </g>
                  </g>
                  <g
                     id="g18137"
                     transform="translate(0,-2.6296876)">
                    <g
                       id="g18123">
                      <g
                         id="g18110">
                        <text
                           transform="scale(0.91658768,1.0910031)"
                           style="font-variant:normal;font-weight:normal;font-size:1.76389px;font-family:sans-serif;-inkscape-font-specification:sans-serif;writing-mode:lr-tb;fill:#000000;fill-opacity:1;fill-rule:nonzero;stroke:none;stroke-width:0.105875"
                           id="text17464"
                           x="97.506714"
                           y="98.203926"><tspan
                             id="tspan17462"
                             x="97.506714"
                             y="98.203926"
                             sodipodi:role="line"
                             style="stroke-width:0.105875">Ambient Rain</tspan></text>
                        <path
                           d="m 88.283302,106.52158 c 0,-0.1236 0.0854,-0.22525 0.19021,-0.22525 0.10383,0 0.18923,0.10165 0.18923,0.22525 0,0.12475 -0.0854,0.2264 -0.18923,0.2264 -0.10481,0 -0.19021,-0.10165 -0.19021,-0.2264"
                           style="fill:#f0e442;fill-opacity:1;fill-rule:nonzero;stroke:#f0e442;stroke-width:0.0751711;stroke-linecap:round;stroke-linejoin:round;stroke-miterlimit:10;stroke-dasharray:none;stroke-opacity:1"
                           id="path17466" />
                        <path
                           d="m 87.801972,106.52158 h 1.34211"
                           style="fill:none;stroke:#f0e442;stroke-width:0.113286;stroke-linecap:butt;stroke-linejoin:round;stroke-miterlimit:10;stroke-dasharray:0.452086, 0.452086;stroke-dashoffset:0;stroke-opacity:1"
                           id="path17468" />
                        <path
                           d="m 87.801972,106.52158 h 1.34211"
                           style="fill:none;stroke:#f0e442;stroke-width:0.113286;stroke-linecap:butt;stroke-linejoin:round;stroke-miterlimit:10;stroke-dasharray:none;stroke-opacity:1"
                           id="path17470" />
                        <text
                           transform="scale(0.91658768,1.0910031)"
                           style="font-variant:normal;font-weight:normal;font-size:1.76389px;font-family:sans-serif;-inkscape-font-specification:sans-serif;writing-mode:lr-tb;fill:#000000;fill-opacity:1;fill-rule:nonzero;stroke:none;stroke-width:0.105875"
                           id="text17474"
                           x="97.506714"
                           y="98.203926"><tspan
                             id="tspan17472"
                             x="97.506714"
                             y="98.203926"
                             sodipodi:role="line"
                             style="stroke-width:0.105875">Ambient Rain</tspan></text>
                        <path
                           d="m 88.283302,106.52158 c 0,-0.1236 0.0854,-0.22525 0.19021,-0.22525 0.10383,0 0.18923,0.10165 0.18923,0.22525 0,0.12475 -0.0854,0.2264 -0.18923,0.2264 -0.10481,0 -0.19021,-0.10165 -0.19021,-0.2264"
                           style="fill:#f0e442;fill-opacity:1;fill-rule:nonzero;stroke:#f0e442;stroke-width:0.0751711;stroke-linecap:round;stroke-linejoin:round;stroke-miterlimit:10;stroke-dasharray:none;stroke-opacity:1"
                           id="path17476" />
                        <path
                           d="m 87.801972,106.52158 h 1.34211"
                           style="fill:none;stroke:#f0e442;stroke-width:0.113286;stroke-linecap:butt;stroke-linejoin:round;stroke-miterlimit:10;stroke-dasharray:0.452086, 0.452086;stroke-dashoffset:0;stroke-opacity:1"
                           id="path17478" />
                        <path
                           d="m 87.801972,106.52158 h 1.34211"
                           style="fill:none;stroke:#f0e442;stroke-width:0.113286;stroke-linecap:butt;stroke-linejoin:round;stroke-miterlimit:10;stroke-dasharray:none;stroke-opacity:1"
                           id="path17480" />
                      </g>
                    </g>
                  </g>
                  <g
                     id="g18256">
                    <g
                       id="g18236">
                      <g
                         id="g18217">
                        <path
                           d="m 115.23631,106.47912 c 0,-0.1236 0.0854,-0.22525 0.18924,-0.22525 0.1048,0 0.1902,0.10165 0.1902,0.22525 0,0.12475 -0.0854,0.2264 -0.1902,0.2264 -0.10384,0 -0.18924,-0.10165 -0.18924,-0.2264"
                           style="fill:#0072b2;fill-opacity:1;fill-rule:nonzero;stroke:#0072b2;stroke-width:0.0751711;stroke-linecap:round;stroke-linejoin:round;stroke-miterlimit:10;stroke-dasharray:none;stroke-opacity:1"
                           id="path17482" />
                        <path
                           d="m 114.75498,106.47912 h 1.34114"
                           style="fill:none;stroke:#0072b2;stroke-width:0.113286;stroke-linecap:butt;stroke-linejoin:round;stroke-miterlimit:10;stroke-dasharray:0.452086, 0.452086;stroke-dashoffset:0;stroke-opacity:1"
                           id="path17484" />
                        <path
                           d="m 114.75498,106.47912 h 1.34114"
                           style="fill:none;stroke:#0072b2;stroke-width:0.113286;stroke-linecap:butt;stroke-linejoin:round;stroke-miterlimit:10;stroke-dasharray:none;stroke-opacity:1"
                           id="path17486" />
                        <text
                           transform="matrix(0.09704357,0,0,0.11550978,116.56885,107.14051)"
                           style="font-variant:normal;font-weight:normal;font-size:16.6601px;font-family:sans-serif;-inkscape-font-specification:sans-serif;writing-mode:lr-tb;white-space:pre;inline-size:246.886;fill:#000000;fill-opacity:1;fill-rule:nonzero;stroke:none"
                           id="text17496"
                           xml:space="preserve"><tspan
                             x="0"
                             y="0"><tspan
                               style="font-size:16.6601px">Ambient Rain plus water and </tspan></tspan><tspan
                             x="0"
                             y="20.825126"><tspan
                               style="font-size:16.6601px">nutrients</tspan></tspan></text>
                        <path
                           d="m 115.23631,106.47912 c 0,-0.1236 0.0854,-0.22525 0.18924,-0.22525 0.1048,0 0.1902,0.10165 0.1902,0.22525 0,0.12475 -0.0854,0.2264 -0.1902,0.2264 -0.10384,0 -0.18924,-0.10165 -0.18924,-0.2264"
                           style="fill:#0072b2;fill-opacity:1;fill-rule:nonzero;stroke:#0072b2;stroke-width:0.0751711;stroke-linecap:round;stroke-linejoin:round;stroke-miterlimit:10;stroke-dasharray:none;stroke-opacity:1"
                           id="path17498" />
                        <path
                           d="m 114.75498,106.47912 h 1.34114"
                           style="fill:none;stroke:#0072b2;stroke-width:0.113286;stroke-linecap:butt;stroke-linejoin:round;stroke-miterlimit:10;stroke-dasharray:0.452086, 0.452086;stroke-dashoffset:0;stroke-opacity:1"
                           id="path17500" />
                        <path
                           d="m 114.75498,106.47912 h 1.34114"
                           style="fill:none;stroke:#0072b2;stroke-width:0.113286;stroke-linecap:butt;stroke-linejoin:round;stroke-miterlimit:10;stroke-dasharray:none;stroke-opacity:1"
                           id="path17502" />
                        <text
                           transform="matrix(0.09704357,0,0,0.11550978,116.56885,107.14051)"
                           style="font-variant:normal;font-weight:normal;font-size:16.6601px;font-family:sans-serif;-inkscape-font-specification:sans-serif;writing-mode:lr-tb;white-space:pre;inline-size:246.886;fill:#000000;fill-opacity:1;fill-rule:nonzero;stroke:none"
                           id="text17512"
                           xml:space="preserve"><tspan
                             x="0"
                             y="0"><tspan
                               style="font-size:16.6601px">Ambient Rain plus water and </tspan></tspan><tspan
                             x="0"
                             y="20.825126"><tspan
                               style="font-size:16.6601px">nutrients</tspan></tspan></text>
                      </g>
                    </g>
                  </g>
                </g>
              </g>
            </g>
          </g>
        </g>
      </g>
    </g>
  </g>
</svg>
