<?xml version="1.0" encoding="UTF-8" standalone="no"?>
<svg
   xmlns:dc="http://purl.org/dc/elements/1.1/"
   xmlns:cc="http://creativecommons.org/ns#"
   xmlns:rdf="http://www.w3.org/1999/02/22-rdf-syntax-ns#"
   xmlns:svg="http://www.w3.org/2000/svg"
   xmlns="http://www.w3.org/2000/svg"
   xmlns:sodipodi="http://sodipodi.sourceforge.net/DTD/sodipodi-0.dtd"
   xmlns:inkscape="http://www.inkscape.org/namespaces/inkscape"
   width="210mm"
   height="297mm"
   viewBox="0 0 210 297"
   version="1.1"
   id="svg8"
   inkscape:version="1.0.2 (e86c870879, 2021-01-15)"
   sodipodi:docname="plot_regression_pc1.svg">
  <defs
     id="defs2">
    <rect
       x="57.608043"
       y="157.28984"
       width="3.1925242"
       height="3.6878431"
       id="rect1369" />
    <rect
       x="58.583979"
       y="157.80087"
       width="12.945701"
       height="9.9378458"
       id="rect1363" />
    <clipPath
       clipPathUnits="userSpaceOnUse"
       id="clipPath68">
      <path
         d="M 41.56,32.76 H 603.84 V 426.52 H 41.56 Z"
         id="path66" />
    </clipPath>
    <rect
       x="57.608043"
       y="157.28984"
       width="3.1925242"
       height="3.6878431"
       id="rect1377" />
    <rect
       x="58.583979"
       y="157.80087"
       width="12.945701"
       height="9.9378458"
       id="rect1387" />
    <rect
       x="58.583979"
       y="157.80087"
       width="12.945701"
       height="9.9378458"
       id="rect1393" />
    <rect
       x="58.583979"
       y="157.80087"
       width="12.945701"
       height="9.9378458"
       id="rect1399" />
    <rect
       x="58.583981"
       y="157.80087"
       width="12.945701"
       height="9.9378462"
       id="rect1363-3" />
    <rect
       x="58.583981"
       y="157.80087"
       width="12.945701"
       height="9.9378462"
       id="rect1410" />
    <rect
       x="58.583981"
       y="157.80087"
       width="12.945701"
       height="9.9378462"
       id="rect1387-6" />
    <rect
       x="58.583981"
       y="157.80087"
       width="12.945701"
       height="9.9378462"
       id="rect1439" />
    <rect
       x="58.583981"
       y="157.80087"
       width="12.945701"
       height="9.9378462"
       id="rect1393-7" />
    <rect
       x="58.583981"
       y="157.80087"
       width="12.945701"
       height="9.9378462"
       id="rect1468" />
    <rect
       x="58.583981"
       y="157.80087"
       width="12.945701"
       height="9.9378462"
       id="rect1399-5" />
    <rect
       x="58.583981"
       y="157.80087"
       width="12.945701"
       height="9.9378462"
       id="rect1497" />
  </defs>
  <sodipodi:namedview
     id="base"
     pagecolor="#ffffff"
     bordercolor="#666666"
     borderopacity="1.0"
     inkscape:pageopacity="0.0"
     inkscape:pageshadow="2"
     inkscape:zoom="0.98994949"
     inkscape:cx="440.22125"
     inkscape:cy="505.63995"
     inkscape:document-units="mm"
     inkscape:current-layer="layer1"
     inkscape:document-rotation="0"
     showgrid="false"
     inkscape:window-width="1366"
     inkscape:window-height="744"
     inkscape:window-x="0"
     inkscape:window-y="0"
     inkscape:window-maximized="0"
     inkscape:object-paths="true" />
  <metadata
     id="metadata5">
    <rdf:RDF>
      <cc:Work
         rdf:about="">
        <dc:format>image/svg+xml</dc:format>
        <dc:type
           rdf:resource="http://purl.org/dc/dcmitype/StillImage" />
        <dc:title />
      </cc:Work>
    </rdf:RDF>
  </metadata>
  <g
     inkscape:label="Layer 1"
     inkscape:groupmode="layer"
     id="layer1">
    <g
       id="g38"
       transform="matrix(0.35277777,0,0,-0.35277777,47.614044,213.34716)" />
    <g
       id="g40"
       transform="matrix(0.35277777,0,0,-0.35277777,47.614044,213.34716)" />
    <g
       id="g42"
       transform="matrix(0.35277777,0,0,-0.35277777,47.614044,213.34716)" />
    <g
       id="g44"
       transform="matrix(0.35277777,0,0,-0.35277777,47.614044,213.34716)" />
    <g
       id="g46"
       transform="matrix(0.35277777,0,0,-0.35277777,47.614044,213.34716)" />
    <g
       id="g48"
       transform="matrix(0.35277777,0,0,-0.35277777,47.614044,213.34716)" />
    <g
       id="g50"
       transform="matrix(0.35277777,0,0,-0.35277777,47.614044,213.34716)" />
    <g
       id="g52"
       transform="matrix(0.35277777,0,0,-0.35277777,47.614044,213.34716)" />
    <g
       id="g54"
       transform="matrix(0.35277777,0,0,-0.35277777,47.614044,213.34716)" />
    <g
       id="g60"
       transform="matrix(0.35277777,0,0,-0.35277777,47.614044,213.34716)" />
    <g
       id="g88"
       transform="matrix(0.35277777,0,0,-0.35277777,47.614044,213.34716)" />
    <g
       id="g90"
       transform="matrix(0.35277777,0,0,-0.35277777,47.614044,213.34716)" />
    <g
       id="g92"
       transform="matrix(0.35277777,0,0,-0.35277777,47.614044,213.34716)" />
    <g
       id="g94"
       transform="matrix(0.35277777,0,0,-0.35277777,47.614044,213.34716)" />
    <g
       id="g96"
       transform="matrix(0.35277777,0,0,-0.35277777,47.614044,213.34716)" />
    <g
       id="g98"
       transform="matrix(0.35277777,0,0,-0.35277777,47.614044,213.34716)" />
    <g
       id="g100"
       transform="matrix(0.35277777,0,0,-0.35277777,47.614044,213.34716)" />
    <g
       id="g102"
       transform="matrix(0.35277777,0,0,-0.35277777,47.614044,213.34716)" />
    <g
       id="g104"
       transform="matrix(0.35277777,0,0,-0.35277777,47.614044,213.34716)" />
    <g
       id="g106"
       transform="matrix(0.35277777,0,0,-0.35277777,47.614044,213.34716)" />
    <g
       id="g108"
       transform="matrix(0.35277777,0,0,-0.35277777,47.614044,213.34716)" />
    <g
       id="g110"
       transform="matrix(0.35277777,0,0,-0.35277777,47.614044,213.34716)" />
    <g
       id="g116"
       transform="matrix(0.35277777,0,0,-0.35277777,47.614044,213.34716)" />
    <g
       id="g118"
       transform="matrix(0.35277777,0,0,-0.35277777,47.614044,213.34716)" />
    <g
       id="g142"
       transform="matrix(0.35277777,0,0,-0.35277777,47.614044,213.34716)" />
    <g
       id="g156"
       transform="matrix(0.35277777,0,0,-0.35277777,47.614044,213.34716)" />
    <g
       id="g158"
       transform="matrix(0.35277777,0,0,-0.35277777,47.614044,213.34716)" />
    <g
       id="g160"
       transform="matrix(0.35277777,0,0,-0.35277777,47.614044,213.34716)" />
    <g
       id="g162"
       transform="matrix(0.35277777,0,0,-0.35277777,47.614044,213.34716)" />
    <g
       id="g164"
       transform="matrix(0.35277777,0,0,-0.35277777,47.614044,213.34716)" />
    <g
       id="g166"
       transform="matrix(0.35277777,0,0,-0.35277777,47.614044,213.34716)" />
    <g
       id="g172"
       transform="matrix(0.35277777,0,0,-0.35277777,47.614044,213.34716)" />
    <g
       id="g174"
       transform="matrix(0.35277777,0,0,-0.35277777,47.614044,213.34716)" />
    <g
       id="g186"
       transform="matrix(0.35277777,0,0,-0.35277777,47.614044,213.34716)" />
    <g
       id="g206"
       transform="matrix(0.35277777,0,0,-0.35277777,47.614044,213.34716)" />
    <g
       id="g208"
       transform="matrix(0.35277777,0,0,-0.35277777,47.614044,213.34716)" />
    <g
       id="g210"
       transform="matrix(0.35277777,0,0,-0.35277777,47.614044,213.34716)" />
    <g
       id="g212"
       transform="matrix(0.35277777,0,0,-0.35277777,47.614044,213.34716)" />
    <g
       id="g214"
       transform="matrix(0.35277777,0,0,-0.35277777,47.614044,213.34716)" />
    <g
       id="g222"
       transform="matrix(0.35277777,0,0,-0.35277777,47.614044,213.34716)" />
    <g
       id="g230"
       transform="matrix(0.35277777,0,0,-0.35277777,47.614044,213.34716)" />
    <g
       id="g232"
       transform="matrix(0.35277777,0,0,-0.35277777,47.614044,213.34716)" />
    <g
       id="g234"
       transform="matrix(0.35277777,0,0,-0.35277777,47.614044,213.34716)" />
    <g
       id="g236"
       transform="matrix(0.35277777,0,0,-0.35277777,47.614044,213.34716)" />
    <g
       id="g238"
       transform="matrix(0.35277777,0,0,-0.35277777,47.614044,213.34716)" />
    <g
       id="g240"
       transform="matrix(0.35277777,0,0,-0.35277777,47.614044,213.34716)" />
    <g
       id="g242"
       transform="matrix(0.35277777,0,0,-0.35277777,47.614044,213.34716)" />
    <g
       id="g248"
       transform="matrix(0.35277777,0,0,-0.35277777,47.614044,213.34716)" />
    <g
       id="g250"
       transform="matrix(0.35277777,0,0,-0.35277777,47.614044,213.34716)" />
    <g
       id="g252"
       transform="matrix(0.35277777,0,0,-0.35277777,47.614044,213.34716)" />
    <g
       id="g260"
       transform="matrix(0.35277777,0,0,-0.35277777,47.614044,213.34716)" />
    <g
       id="g262"
       transform="matrix(0.35277777,0,0,-0.35277777,47.614044,213.34716)" />
    <g
       id="g264"
       transform="matrix(0.35277777,0,0,-0.35277777,47.614044,213.34716)" />
    <g
       id="g266"
       transform="matrix(0.35277777,0,0,-0.35277777,47.614044,213.34716)" />
    <g
       id="g272"
       transform="matrix(0.35277777,0,0,-0.35277777,47.614044,213.34716)" />
    <g
       id="g278"
       transform="matrix(0.35277777,0,0,-0.35277777,47.614044,213.34716)" />
    <g
       id="g280"
       transform="matrix(0.35277777,0,0,-0.35277777,47.614044,213.34716)" />
    <g
       id="g282"
       transform="matrix(0.35277777,0,0,-0.35277777,47.614044,213.34716)" />
    <g
       id="g288"
       transform="matrix(0.35277777,0,0,-0.35277777,47.614044,213.34716)" />
    <g
       id="g294"
       transform="matrix(0.35277777,0,0,-0.35277777,47.614044,213.34716)" />
    <g
       id="g296"
       transform="matrix(0.35277777,0,0,-0.35277777,47.614044,213.34716)" />
    <g
       id="g298"
       transform="matrix(0.35277777,0,0,-0.35277777,47.614044,213.34716)" />
    <g
       id="g304"
       transform="matrix(0.35277777,0,0,-0.35277777,47.614044,213.34716)" />
    <g
       id="g310"
       transform="matrix(0.35277777,0,0,-0.35277777,47.614044,213.34716)" />
    <g
       id="g312"
       transform="matrix(0.35277777,0,0,-0.35277777,47.614044,213.34716)" />
    <g
       id="g314"
       transform="matrix(0.35277777,0,0,-0.35277777,47.614044,213.34716)" />
    <g
       id="g320"
       transform="matrix(0.35277777,0,0,-0.35277777,47.614044,213.34716)" />
    <g
       id="g326"
       transform="matrix(0.35277777,0,0,-0.35277777,47.614044,213.34716)" />
    <g
       id="g328"
       transform="matrix(0.35277777,0,0,-0.35277777,47.614044,213.34716)" />
    <g
       id="g330"
       transform="matrix(0.35277777,0,0,-0.35277777,47.614044,213.34716)" />
    <g
       id="g338"
       transform="matrix(0.35277777,0,0,-0.35277777,47.614044,213.34716)" />
    <g
       id="g340"
       transform="matrix(0.35277777,0,0,-0.35277777,47.614044,213.34716)" />
    <g
       id="g342"
       transform="matrix(0.35277777,0,0,-0.35277777,47.614044,213.34716)" />
    <g
       id="g344"
       transform="matrix(0.35277777,0,0,-0.35277777,47.614044,213.34716)" />
    <g
       id="g352"
       transform="matrix(0.35277777,0,0,-0.35277777,47.614044,213.34716)" />
    <g
       id="g354"
       transform="matrix(0.35277777,0,0,-0.35277777,47.614044,213.34716)" />
    <g
       id="g356"
       transform="matrix(0.35277777,0,0,-0.35277777,47.614044,213.34716)" />
    <g
       id="g358"
       transform="matrix(0.35277777,0,0,-0.35277777,47.614044,213.34716)" />
    <g
       id="g366"
       transform="matrix(0.35277777,0,0,-0.35277777,47.614044,213.34716)" />
    <g
       id="g368"
       transform="matrix(0.35277777,0,0,-0.35277777,47.614044,213.34716)" />
    <g
       id="g370"
       transform="matrix(0.35277777,0,0,-0.35277777,47.614044,213.34716)" />
    <g
       id="g372"
       transform="matrix(0.35277777,0,0,-0.35277777,47.614044,213.34716)" />
    <g
       id="g380"
       transform="matrix(0.35277777,0,0,-0.35277777,47.614044,213.34716)" />
    <g
       id="g382"
       transform="matrix(0.35277777,0,0,-0.35277777,47.614044,213.34716)" />
    <g
       id="g384"
       transform="matrix(0.35277777,0,0,-0.35277777,47.614044,213.34716)" />
    <g
       id="g386"
       transform="matrix(0.35277777,0,0,-0.35277777,47.614044,213.34716)" />
    <g
       id="g388"
       transform="matrix(0.35277777,0,0,-0.35277777,47.614044,213.34716)" />
    <g
       id="g390"
       transform="matrix(0.35277777,0,0,-0.35277777,47.614044,213.34716)" />
    <g
       id="g392"
       transform="matrix(0.35277777,0,0,-0.35277777,47.614044,213.34716)" />
    <g
       id="g394"
       transform="matrix(0.35277777,0,0,-0.35277777,47.614044,213.34716)" />
    <g
       id="g396"
       transform="matrix(0.35277777,0,0,-0.35277777,47.614044,213.34716)" />
    <g
       id="g398"
       transform="matrix(0.35277777,0,0,-0.35277777,47.614044,213.34716)" />
    <g
       id="g400"
       transform="matrix(0.35277777,0,0,-0.35277777,47.614044,213.34716)" />
    <g
       id="g402"
       transform="matrix(0.35277777,0,0,-0.35277777,47.614044,213.34716)" />
    <g
       id="g404"
       transform="matrix(0.35277777,0,0,-0.35277777,47.614044,213.34716)" />
    <text
       xml:space="preserve"
       id="text1367"
       style="line-height:1.05;font-family:sans-serif;font-size:1.41111111px;word-spacing:0px;letter-spacing:0.52916667px;white-space:pre;shape-inside:url(#rect1369);" />
    <text
       xml:space="preserve"
       id="text1375"
       style="line-height:1.05;font-family:sans-serif;font-size:1.41111111px;word-spacing:0px;letter-spacing:0.52916667px;white-space:pre;shape-inside:url(#rect1377);" />
    <text
       xml:space="preserve"
       style="font-size:1.41111px;line-height:1.05;font-family:sans-serif;letter-spacing:0.529167px;word-spacing:0px;stroke-width:0.264583"
       x="78.712173"
       y="161.1499"
       id="text1381"><tspan
         sodipodi:role="line"
         id="tspan1379"
         x="78.712173"
         y="161.1499"
         style="stroke-width:0.264583" /></text>
    <path
       d="m 65.656913,134.69418 14.242471,-1.70792 14.244138,-1.70793 14.242468,-1.7065 14.24415,-1.70792 14.24246,-1.70793 14.24414,-1.7065"
       style="fill:none;stroke:#f0e442;stroke-width:0.165192;stroke-linecap:butt;stroke-linejoin:round;stroke-miterlimit:10;stroke-dasharray:none;stroke-opacity:1"
       id="path72" />
    <path
       d="m 65.656913,132.44166 14.242471,-7.50603 14.244138,-7.50746 14.242468,-7.50746 14.24415,-7.50603 14.24246,-7.50745 14.24414,-7.50603"
       style="fill:none;stroke:#009e73;stroke-width:0.165192;stroke-linecap:butt;stroke-linejoin:round;stroke-miterlimit:10;stroke-dasharray:none;stroke-opacity:1"
       id="path74" />
    <path
       d="m 65.656913,138.43365 14.242471,-2.13277 14.244138,-2.13276 14.242468,-2.13277 14.24415,-2.13277 14.24246,-2.13277 14.24414,-2.13276"
       style="fill:none;stroke:#56b4e9;stroke-width:0.165192;stroke-linecap:butt;stroke-linejoin:round;stroke-miterlimit:10;stroke-dasharray:none;stroke-opacity:1"
       id="path76" />
    <path
       d="m 65.656913,136.78561 14.242471,-8.1376 14.244138,-8.13901 14.242468,-8.1376 14.24415,-8.13901 14.24246,-8.137596 14.24414,-8.139018"
       style="fill:none;stroke:#0072b2;stroke-width:0.165192;stroke-linecap:butt;stroke-linejoin:round;stroke-miterlimit:10;stroke-dasharray:none;stroke-opacity:1"
       id="path78" />
    <path
       d="m 65.656913,134.69418 14.242471,-1.70792 14.244138,-1.70793 14.242468,-1.7065 14.24415,-1.70792 14.24246,-1.70793 14.24414,-1.7065"
       style="fill:none;stroke:#f0e442;stroke-width:0.32884;stroke-linecap:butt;stroke-linejoin:round;stroke-miterlimit:10;stroke-dasharray:none;stroke-opacity:1"
       id="path80" />
    <path
       d="m 65.656913,132.44166 14.242471,-7.50603 14.244138,-7.50746 14.242468,-7.50746 14.24415,-7.50603 14.24246,-7.50745 14.24414,-7.50603"
       style="fill:none;stroke:#009e73;stroke-width:0.32884;stroke-linecap:butt;stroke-linejoin:round;stroke-miterlimit:10;stroke-dasharray:none;stroke-opacity:1"
       id="path82" />
    <path
       d="m 65.656913,138.43365 14.242471,-2.13277 14.244138,-2.13276 14.242468,-2.13277 14.24415,-2.13277 14.24246,-2.13277 14.24414,-2.13276"
       style="fill:none;stroke:#56b4e9;stroke-width:0.32884;stroke-linecap:butt;stroke-linejoin:round;stroke-miterlimit:10;stroke-dasharray:none;stroke-opacity:1"
       id="path84" />
    <path
       d="m 65.656913,136.78561 14.242471,-8.1376 14.244138,-8.13901 14.242468,-8.1376 14.24415,-8.13901 14.24246,-8.137596 14.24414,-8.139018"
       style="fill:none;stroke:#0072b2;stroke-width:0.32884;stroke-linecap:butt;stroke-linejoin:round;stroke-miterlimit:10;stroke-dasharray:none;stroke-opacity:1"
       id="path86" />
    <path
       d="M 61.38367,140.98556 V 84.849292"
       style="fill:none;stroke:#000000;stroke-width:0.165192;stroke-linecap:butt;stroke-linejoin:round;stroke-miterlimit:10;stroke-dasharray:none;stroke-opacity:1"
       id="path114" />
    <text
       style="font-variant:normal;font-weight:normal;font-size:2.11667px;font-family:sans-serif;-inkscape-font-specification:sans-serif;writing-mode:lr-tb;white-space:pre;inline-size:11.6627;fill:#4d4d4d;fill-opacity:1;fill-rule:nonzero;stroke:none;stroke-width:0.154385"
       id="text124"
       x="53.219608"
       y="144.74239"
       transform="matrix(1.08291,0,0,0.92343777,-1.9882113,0.30510435)"
       xml:space="preserve"><tspan
         x="53.219608"
         y="144.74239"><tspan
           style="font-size:2.11667px;stroke-width:0.154385">0.15</tspan></tspan></text>
    <text
       style="font-variant:normal;font-weight:normal;font-size:2.11667px;font-family:sans-serif;-inkscape-font-specification:sans-serif;writing-mode:lr-tb;white-space:pre;inline-size:6.76702;fill:#4d4d4d;fill-opacity:1;fill-rule:nonzero;stroke:none;stroke-width:0.154385"
       id="text128"
       x="53.219608"
       y="131.666"
       transform="matrix(1.08291,0,0,0.92343777,-1.9882113,0.33576416)"
       xml:space="preserve"><tspan
         x="53.219608"
         y="131.666"><tspan
           style="font-size:2.11667px;stroke-width:0.154385">0.20</tspan></tspan></text>
    <text
       style="font-variant:normal;font-weight:normal;font-size:2.11667px;font-family:sans-serif;-inkscape-font-specification:sans-serif;writing-mode:lr-tb;white-space:pre;inline-size:14.5253;fill:#4d4d4d;fill-opacity:1;fill-rule:nonzero;stroke:none;stroke-width:0.154385"
       id="text132"
       x="53.219608"
       y="118.58807"
       transform="matrix(1.08291,0,0,0.92343777,-1.9882113,0.23180571)"
       xml:space="preserve"><tspan
         x="53.219608"
         y="118.58807"><tspan
           style="font-size:2.11667px;stroke-width:0.154385">0.25</tspan></tspan></text>
    <text
       style="font-variant:normal;font-weight:normal;font-size:2.11667px;font-family:sans-serif;-inkscape-font-specification:sans-serif;writing-mode:lr-tb;white-space:pre;inline-size:5.10514;fill:#4d4d4d;fill-opacity:1;fill-rule:nonzero;stroke:none;stroke-width:0.154385"
       id="text136"
       x="53.219608"
       y="105.51169"
       transform="matrix(1.08291,0,0,0.92343777,-1.9882111,0.21328928)"
       xml:space="preserve"><tspan
         x="53.219608"
         y="105.51169"><tspan
           style="font-size:2.11667px;stroke-width:0.154385">0.30</tspan></tspan></text>
    <text
       style="font-variant:normal;font-weight:normal;font-size:2.11667px;font-family:sans-serif;-inkscape-font-specification:sans-serif;writing-mode:lr-tb;white-space:pre;inline-size:38.742;fill:#4d4d4d;fill-opacity:1;fill-rule:nonzero;stroke:none;stroke-width:0.154385"
       id="text140"
       x="53.219608"
       y="92.435303"
       transform="matrix(1.08291,0,0,0.92343777,-1.98857,0.24105037)"
       xml:space="preserve"><tspan
         x="53.219608"
         y="92.435303"><tspan
           style="font-size:2.11667px;stroke-width:0.154385">0.35</tspan></tspan></text>
    <path
       d="M 60.925584,133.2001 H 61.38367"
       style="fill:none;stroke:#333333;stroke-width:0.165192;stroke-linecap:butt;stroke-linejoin:round;stroke-miterlimit:10;stroke-dasharray:none;stroke-opacity:1"
       id="path146" />
    <path
       d="M 60.925584,121.12488 H 61.38367"
       style="fill:none;stroke:#333333;stroke-width:0.165192;stroke-linecap:butt;stroke-linejoin:round;stroke-miterlimit:10;stroke-dasharray:none;stroke-opacity:1"
       id="path148" />
    <path
       d="M 60.925584,109.04822 H 61.38367"
       style="fill:none;stroke:#333333;stroke-width:0.165192;stroke-linecap:butt;stroke-linejoin:round;stroke-miterlimit:10;stroke-dasharray:none;stroke-opacity:1"
       id="path150" />
    <path
       d="M 60.925584,96.972992 H 61.38367"
       style="fill:none;stroke:#333333;stroke-width:0.165192;stroke-linecap:butt;stroke-linejoin:round;stroke-miterlimit:10;stroke-dasharray:none;stroke-opacity:1"
       id="path152" />
    <path
       d="M 60.925584,84.897764 H 61.38367"
       style="fill:none;stroke:#333333;stroke-width:0.165192;stroke-linecap:butt;stroke-linejoin:round;stroke-miterlimit:10;stroke-dasharray:none;stroke-opacity:1"
       id="path154" />
    <path
       d="m 61.38367,140.98556 h 94.00464"
       style="fill:none;stroke:#000000;stroke-width:0.165192;stroke-linecap:butt;stroke-linejoin:round;stroke-miterlimit:10;stroke-dasharray:none;stroke-opacity:1"
       id="path170" />
    <path
       d="m 65.656913,141.37619 v -0.39063"
       style="fill:none;stroke:#333333;stroke-width:0.165192;stroke-linecap:butt;stroke-linejoin:round;stroke-miterlimit:10;stroke-dasharray:none;stroke-opacity:1"
       id="path178" />
    <path
       d="m 94.143522,141.37619 v -0.39063"
       style="fill:none;stroke:#333333;stroke-width:0.165192;stroke-linecap:butt;stroke-linejoin:round;stroke-miterlimit:10;stroke-dasharray:none;stroke-opacity:1"
       id="path180" />
    <path
       d="m 122.63014,141.37619 v -0.39063"
       style="fill:none;stroke:#333333;stroke-width:0.165192;stroke-linecap:butt;stroke-linejoin:round;stroke-miterlimit:10;stroke-dasharray:none;stroke-opacity:1"
       id="path182" />
    <path
       d="m 151.11674,141.37619 v -0.39063"
       style="fill:none;stroke:#333333;stroke-width:0.165192;stroke-linecap:butt;stroke-linejoin:round;stroke-miterlimit:10;stroke-dasharray:none;stroke-opacity:1"
       id="path184" />
    <text
       style="font-variant:normal;font-weight:normal;font-size:2.11667px;font-family:sans-serif;-inkscape-font-specification:sans-serif;writing-mode:lr-tb;fill:#4d4d4d;fill-opacity:1;fill-rule:nonzero;stroke:none;stroke-width:0.154385"
       id="text192"
       x="59.219559"
       y="154.8584"
       transform="scale(1.08291,0.92343777)"><tspan
         x="59.219559"
         y="154.8584"
         sodipodi:role="line"
         id="tspan190"
         style="font-size:2.11667px;stroke-width:0.154385">-2</tspan></text>
    <text
       style="font-variant:normal;font-weight:normal;font-size:2.11667px;font-family:sans-serif;-inkscape-font-specification:sans-serif;writing-mode:lr-tb;fill:#4d4d4d;fill-opacity:1;fill-rule:nonzero;stroke:none;stroke-width:0.154385"
       id="text196"
       x="86.243904"
       y="154.85796"
       transform="scale(1.08291,0.92343777)"><tspan
         x="86.243904"
         y="154.85796"
         id="tspan194"
         style="font-size:2.11667px;stroke-width:0.154385">0</tspan></text>
    <text
       style="font-variant:normal;font-weight:normal;font-size:2.11667px;font-family:sans-serif;-inkscape-font-specification:sans-serif;writing-mode:lr-tb;fill:#4d4d4d;fill-opacity:1;fill-rule:nonzero;stroke:none;stroke-width:0.154385"
       id="text200"
       x="112.54279"
       y="154.85796"
       transform="scale(1.08291,0.92343777)"><tspan
         x="112.54279"
         y="154.85796"
         id="tspan198"
         style="font-size:2.11667px;stroke-width:0.154385">2</tspan></text>
    <text
       style="font-variant:normal;font-weight:normal;font-size:2.11667px;font-family:sans-serif;-inkscape-font-specification:sans-serif;writing-mode:lr-tb;fill:#4d4d4d;fill-opacity:1;fill-rule:nonzero;stroke:none;stroke-width:0.154385"
       id="text204"
       x="138.86235"
       y="154.83005"
       transform="scale(1.08291,0.92343777)"><tspan
         x="138.86235"
         y="154.83005"
         id="tspan202"
         style="font-size:2.11667px;stroke-width:0.154385">4</tspan></text>
    <text
       style="font-variant:normal;font-weight:normal;font-size:2.82222px;font-family:sans-serif;-inkscape-font-specification:sans-serif;writing-mode:lr-tb;white-space:pre;inline-size:15.6111;fill:#000000;fill-opacity:1;fill-rule:nonzero;stroke:none;stroke-width:0.154385"
       id="text220"
       x="98.437347"
       y="156.42314"
       transform="matrix(1.08291,0,0,0.92343777,-1.8080523,2.2811396)"
       xml:space="preserve"><tspan
         x="98.437347"
         y="156.42314"><tspan
           style="font-size:2.82222px;stroke-width:0.154385">PC1</tspan></tspan></text>
    <text
       transform="matrix(0,-0.92343777,1.08291,0,-3.0325596,17.274)"
       style="font-variant:normal;font-weight:normal;font-size:2.82222px;font-family:sans-serif;-inkscape-font-specification:sans-serif;writing-mode:lr-tb;white-space:pre;inline-size:48.499;fill:#000000;fill-opacity:1;fill-rule:nonzero;stroke:none;stroke-width:0.154385"
       id="text228"
       x="-124.09343"
       y="52.333439"
       xml:space="preserve"><tspan
         x="-124.09343"
         y="52.333439"><tspan
           style="font-size:2.82222px;stroke-width:0.154385">Absolute growth rate (cm/day) 
</tspan></tspan></text>
    <text
       xml:space="preserve"
       id="text1361"
       style="font-size:1.76389px;line-height:1.05;font-family:sans-serif;letter-spacing:0.529167px;word-spacing:0px;white-space:pre;shape-inside:url(#rect1363-3);"
       transform="translate(92.49423,-72.086198)"><tspan
         x="58.583984"
         y="159.18502"><tspan
           style="font-size:1.76389px">A</tspan></tspan></text>
    <text
       xml:space="preserve"
       id="text1385"
       style="font-size:1.76389px;line-height:1.05;font-family:sans-serif;letter-spacing:0.529167px;word-spacing:0px;white-space:pre;shape-inside:url(#rect1387-6);"
       transform="translate(92.377315,-69.953815)"><tspan
         x="58.583984"
         y="159.18502"><tspan
           style="font-size:1.76389px">A</tspan></tspan></text>
    <text
       xml:space="preserve"
       id="text1391"
       style="font-size:1.76389px;line-height:1.05;font-family:sans-serif;letter-spacing:0.529167px;word-spacing:0px;white-space:pre;shape-inside:url(#rect1393-7);"
       transform="translate(92.489178,-34.670577)"><tspan
         x="58.583984"
         y="159.18502"><tspan
           style="font-size:1.76389px">B</tspan></tspan></text>
    <text
       xml:space="preserve"
       id="text1397"
       style="font-size:1.76389px;line-height:1.05;font-family:sans-serif;letter-spacing:0.529167px;word-spacing:0px;white-space:pre;shape-inside:url(#rect1399-5);"
       transform="translate(92.515942,-32.537926)"><tspan
         x="58.583984"
         y="159.18502"><tspan
           style="font-size:1.76389px">B</tspan></tspan></text>
    <g
       id="g11383"
       transform="translate(-49.927645,7.1020881)">
      <g
         id="g11348">
        <g
           id="g11315">
          <text
             transform="scale(0.91658768,1.0910031)"
             style="font-variant:normal;font-weight:normal;font-size:2.46944px;font-family:sans-serif;-inkscape-font-specification:sans-serif;writing-mode:lr-tb;fill:#000000;fill-opacity:1;fill-rule:nonzero;stroke:none;stroke-width:0.105875"
             id="text20648"
             x="165.23402"
             y="133.6331"><tspan
               x="165.23402"
               sodipodi:role="line"
               id="tspan20646"
               y="133.6331"
               style="font-size:2.46944px;stroke-width:0.105875">Treatments</tspan></text>
          <g
             id="g11251"
             transform="translate(1.0583333,5.0016488e-4)">
            <g
               id="g11243">
              <path
                 d="m 159.37799,148.75958 c 0,-0.1236 0.0854,-0.22525 0.18924,-0.22525 0.1048,0 0.1902,0.10165 0.1902,0.22525 0,0.12475 -0.0854,0.2264 -0.1902,0.2264 -0.10384,0 -0.18924,-0.10165 -0.18924,-0.2264"
                 style="fill:#56b4e9;fill-opacity:1;fill-rule:nonzero;stroke:#56b4e9;stroke-width:0.0751711;stroke-linecap:round;stroke-linejoin:round;stroke-miterlimit:10;stroke-dasharray:none;stroke-opacity:1"
                 id="path1035" />
              <path
                 d="m 158.89666,148.75958 h 1.34211"
                 style="fill:none;stroke:#56b4e9;stroke-width:0.113286;stroke-linecap:butt;stroke-linejoin:round;stroke-miterlimit:10;stroke-dasharray:0.452086, 0.452086;stroke-dashoffset:0;stroke-opacity:1"
                 id="path1041" />
            </g>
            <text
               transform="matrix(0.09704357,0,0,0.11550978,160.67984,149.43344)"
               style="font-variant:normal;font-weight:normal;font-size:23.3242px;font-family:sans-serif;-inkscape-font-specification:sans-serif;writing-mode:lr-tb;white-space:pre;inline-size:427.627;fill:#000000;fill-opacity:1;fill-rule:nonzero;stroke:none"
               id="text1109"
               xml:space="preserve"><tspan
                 x="0"
                 y="0"><tspan
                   style="font-size:23.3242px">Ambient Rain plus water</tspan></tspan></text>
          </g>
          <g
             id="g11239"
             transform="translate(-6.97896,1.0583333)">
            <path
               d="m 132.4253,151.44407 c 0,-0.1236 0.0854,-0.22525 0.1902,-0.22525 0.10384,0 0.18924,0.10165 0.18924,0.22525 0,0.12475 -0.0854,0.2264 -0.18924,0.2264 -0.1048,0 -0.1902,-0.10165 -0.1902,-0.2264"
               style="fill:#009e73;fill-opacity:1;fill-rule:nonzero;stroke:#009e73;stroke-width:0.0751711;stroke-linecap:round;stroke-linejoin:round;stroke-miterlimit:10;stroke-dasharray:none;stroke-opacity:1"
               id="path1013" />
            <path
               d="m 131.94396,151.44407 h 1.34211"
               style="fill:none;stroke:#009e73;stroke-width:0.113286;stroke-linecap:butt;stroke-linejoin:round;stroke-miterlimit:10;stroke-dasharray:0.452086, 0.452086;stroke-dashoffset:0;stroke-opacity:1"
               id="path1019" />
            <text
               transform="matrix(0.09704357,0,0,0.11550978,133.65619,152.06244)"
               style="font-variant:normal;font-weight:normal;font-size:23.3242px;font-family:sans-serif;-inkscape-font-specification:sans-serif;writing-mode:lr-tb;white-space:pre;inline-size:386.943;fill:#000000;fill-opacity:1;fill-rule:nonzero;stroke:none"
               id="text1095"
               xml:space="preserve"><tspan
                 x="0"
                 y="0"><tspan
                   style="font-size:23.3242px">Ambient Rain plus nutrients</tspan></tspan></text>
          </g>
          <g
             id="g11231"
             transform="translate(-6.97896)">
            <text
               transform="scale(0.91658768,1.0910031)"
               style="font-variant:normal;font-weight:normal;font-size:2.46944px;font-family:sans-serif;-inkscape-font-specification:sans-serif;writing-mode:lr-tb;fill:#000000;fill-opacity:1;fill-rule:nonzero;stroke:none;stroke-width:0.105875"
               id="text1081"
               x="145.66577"
               y="136.96886"><tspan
                 id="tspan1079"
                 x="145.66577"
                 y="136.96886"
                 sodipodi:role="line"
                 style="font-size:2.46944px;stroke-width:0.105875">Ambient Rain</tspan></text>
            <path
               d="m 132.42529,148.81424 c 0,-0.1236 0.0854,-0.22525 0.19021,-0.22525 0.10383,0 0.18923,0.10165 0.18923,0.22525 0,0.12475 -0.0854,0.2264 -0.18923,0.2264 -0.10481,0 -0.19021,-0.10165 -0.19021,-0.2264"
               style="fill:#f0e442;fill-opacity:1;fill-rule:nonzero;stroke:#f0e442;stroke-width:0.0751711;stroke-linecap:round;stroke-linejoin:round;stroke-miterlimit:10;stroke-dasharray:none;stroke-opacity:1"
               id="path991" />
            <path
               d="m 131.94396,148.81424 h 1.34211"
               style="fill:none;stroke:#f0e442;stroke-width:0.113286;stroke-linecap:butt;stroke-linejoin:round;stroke-miterlimit:10;stroke-dasharray:0.452086, 0.452086;stroke-dashoffset:0;stroke-opacity:1"
               id="path997" />
          </g>
          <g
             id="g11283"
             transform="translate(1.0583333,1.0583333)">
            <g
               id="g11271">
              <g
                 id="g11260">
                <path
                   d="m 159.37829,151.40105 c 0,-0.1236 0.0854,-0.22525 0.18924,-0.22525 0.1048,0 0.1902,0.10165 0.1902,0.22525 0,0.12475 -0.0854,0.2264 -0.1902,0.2264 -0.10384,0 -0.18924,-0.10165 -0.18924,-0.2264"
                   style="fill:#0072b2;fill-opacity:1;fill-rule:nonzero;stroke:#0072b2;stroke-width:0.0751711;stroke-linecap:round;stroke-linejoin:round;stroke-miterlimit:10;stroke-dasharray:none;stroke-opacity:1"
                   id="path1057" />
                <path
                   d="m 158.89696,151.40105 h 1.34114"
                   style="fill:none;stroke:#0072b2;stroke-width:0.113286;stroke-linecap:butt;stroke-linejoin:round;stroke-miterlimit:10;stroke-dasharray:0.452086, 0.452086;stroke-dashoffset:0;stroke-opacity:1"
                   id="path1063" />
                <text
                   transform="matrix(0.09704357,0,0,0.11550978,160.71083,152.06244)"
                   style="font-variant:normal;font-weight:normal;font-size:23.3242px;font-family:sans-serif;-inkscape-font-specification:sans-serif;writing-mode:lr-tb;white-space:pre;inline-size:511.949;fill:#000000;fill-opacity:1;fill-rule:nonzero;stroke:none"
                   id="text1123"
                   xml:space="preserve"><tspan
                     x="0"
                     y="0"><tspan
                       style="font-size:23.3242px">Ambient Rain plus water and </tspan><tspan
                       style="font-size:23.3242px">nutrients</tspan></tspan></text>
              </g>
            </g>
          </g>
        </g>
      </g>
    </g>
  </g>
</svg>
